<svg width="115" height="73" viewBox="0 0 115 73" fill="none" xmlns="http://www.w3.org/2000/svg">
    <g clip-path="url(#clip0_36_163)">
        <path fill-rule="evenodd" clip-rule="evenodd"
              d="M59.3628 48.5322C55.4611 50.7523 51.0386 51.9166 46.539 51.9081C41.957 51.9002 37.4569 50.7036 33.4868 48.4375C29.5167 46.1714 26.215 42.9148 23.9104 38.9919C23.9104 38.9563 23.8745 38.9563 23.8745 38.9207C23.8745 38.8851 23.8326 38.8851 23.8326 38.8495L27.5281 36.945L31.2237 35.0821C31.2681 35.1226 31.3046 35.1709 31.3315 35.2244C32.9289 37.7989 35.1652 39.9252 37.8272 41.401C40.4893 42.8768 43.4884 43.6529 46.539 43.6553C48.5209 43.6497 50.4897 43.3354 52.3729 42.7238C48.298 38.0662 46.0488 32.1128 46.0356 25.9495C46.0224 19.7862 48.2461 13.8234 52.3011 9.14874C50.4466 8.52037 48.499 8.20356 46.539 8.21134C43.4219 8.22742 40.3626 9.04651 37.6616 10.5881C34.9607 12.1297 32.7111 14.3407 31.1339 17.0041C31.1202 17.0181 31.1099 17.035 31.1037 17.0535C31.0974 17.0719 31.0955 17.0916 31.0979 17.1109L23.6708 13.3078C23.6986 13.244 23.7348 13.1841 23.7786 13.1298C26.0676 9.14844 29.3783 5.83709 33.3753 3.53133C37.3724 1.22557 41.9136 0.00733073 46.539 4.95326e-05C51.0434 -0.0155094 55.4704 1.16013 59.3628 3.4056C63.2526 1.15928 67.6779 -0.016465 72.1805 4.95326e-05C76.8061 0.00611675 81.3479 1.22386 85.3451 3.52974C89.3424 5.83562 92.6529 9.14763 94.9409 13.1298C94.9847 13.1841 95.021 13.244 95.0487 13.3078L87.6276 17.1109C87.63 17.0916 87.6281 17.0719 87.6219 17.0535C87.6156 17.035 87.6053 17.0181 87.5917 17.0041C86.0123 14.3373 83.7589 12.124 81.0535 10.5822C78.348 9.04044 75.2837 8.22331 72.1625 8.21134C70.2045 8.20411 68.2591 8.52092 66.4065 9.14874C70.4615 13.8234 72.6852 19.7862 72.672 25.9495C72.6588 32.1128 70.4096 38.0662 66.3346 42.7238C68.2157 43.3359 70.1825 43.6502 72.1625 43.6553C75.2133 43.654 78.213 42.8785 80.8752 41.4026C83.5374 39.9267 85.7735 37.7996 87.37 35.2244C87.4004 35.1715 87.4388 35.1235 87.4839 35.0821L91.1734 36.945L94.869 38.8495C94.869 38.8851 94.833 38.8851 94.833 38.9207C94.833 38.9563 94.7971 38.9563 94.7971 38.9919C92.4906 42.9097 89.1899 46.1618 85.2225 48.4255C81.2551 50.6892 76.759 51.8857 72.1805 51.8962C67.6827 51.9056 63.2618 50.7413 59.3628 48.5204V48.5322ZM59.3628 38.2384C56.1716 34.9196 54.3841 30.5166 54.3674 25.9333C54.35 21.3873 56.1453 17.0183 59.3628 13.7765C62.5802 17.0183 64.3754 21.3873 64.358 25.9333C64.3413 30.5166 62.5539 34.9196 59.3628 38.2384Z"
              fill="black"/>
        <path fill-rule="evenodd" clip-rule="evenodd"
              d="M16.5792 68.2001C16.5569 68.2405 16.5369 68.2821 16.5193 68.3247C15.7803 69.7255 14.67 70.9003 13.3076 71.723C11.9452 72.5457 10.3823 72.9851 8.78672 72.994C6.44656 72.9096 4.23068 71.9294 2.60525 70.2597C0.979815 68.5899 0.0715561 66.3607 0.0715561 64.0411C0.0715561 61.7215 0.979815 59.4923 2.60525 57.8225C4.23068 56.1528 6.44656 55.1725 8.78672 55.0881C10.3935 55.1005 11.966 55.5497 13.3327 56.3866C14.6994 57.2236 15.8079 58.4163 16.5372 59.8346C16.5756 59.8861 16.6077 59.9418 16.6331 60.0007C16.6331 60.0007 13.824 62.0298 13.8 61.9883C13.7891 61.944 13.7709 61.902 13.7461 61.8637C13.357 60.8789 12.6736 60.0354 11.7873 59.4459C10.901 58.8563 9.85416 58.5489 8.78672 58.5649C7.35121 58.6117 5.99029 59.2094 4.99152 60.2319C3.99276 61.2543 3.43439 62.6213 3.43439 64.044C3.43439 65.4668 3.99276 66.8337 4.99152 67.8562C5.99029 68.8786 7.35121 69.4764 8.78672 69.5232C9.81988 69.5143 10.8287 69.2115 11.6931 68.6509C12.5575 68.0902 13.241 67.2954 13.6623 66.3609C13.7042 66.2956 13.7161 66.2363 13.7461 66.1829L16.5792 68.1882V68.2001Z"
              fill="black"/>
        <path fill-rule="evenodd" clip-rule="evenodd"
              d="M20.2268 55.2543H23.6109V61.5077H32.4995V55.2543H35.9075V72.6558H32.4995V65.0141H23.6109V72.6558H20.2268V55.2543Z"
              fill="black"/>
        <path fill-rule="evenodd" clip-rule="evenodd"
              d="M83.6745 72.6558V55.2543H95.9591V58.7726H87.1005V62.2493H95.2883V65.7201H87.1005V69.1969H97.2109V72.6558H83.6745Z"
              fill="black"/>
        <path fill-rule="evenodd" clip-rule="evenodd" d="M102.015 72.6558V55.2543H105.453V69.1969H115V72.6558H102.015Z"
              fill="black"/>
        <path fill-rule="evenodd" clip-rule="evenodd"
              d="M65.2086 72.6558H65.1008H61.7706V55.2543H62.0221H66.5443L74.0732 65.7201V55.2543H77.4872V72.6558H74.762L65.2086 59.532V72.6558Z"
              fill="black"/>
        <path fill-rule="evenodd" clip-rule="evenodd"
              d="M48.8271 58.7725L45.8323 65.7201H51.9656L48.8331 58.7725H48.8271ZM44.3109 69.1969L42.7417 72.6558H38.6688L46.4552 55.2543H51.2469L59.0333 72.6618H54.9604L53.3792 69.2028L44.3109 69.1969Z"
              fill="black"/>
    </g>
    <defs>
        <clipPath id="clip0_36_163">
            <rect width="115" height="73" fill="white"/>
        </clipPath>
    </defs>
</svg>
