<svg width="236" height="63" viewBox="0 0 236 63" fill="none" xmlns="http://www.w3.org/2000/svg">
    <g clip-path="url(#clip0_36_140)">
        <path d="M0.201652 5.61682L0 39.8056L30.6799 40.0066L30.5839 36.0834L4.74362 35.6815L4.63799 5.81776L0.201652 5.61682Z"
              fill="#1D1D1B"/>
        <path d="M205.522 5.61682L205.32 39.8056L236 40.0066L235.904 36.0834L210.064 35.6815L209.968 5.81776L205.522 5.61682Z"
              fill="#1D1D1B"/>
        <path d="M21.7976 17.8838L26.7429 5.71252H31.7938L25.6386 17.9891L21.7976 17.8838Z" fill="#1D1D1B"/>
        <path d="M111.83 25.5292C114.158 25.22 116.3 24.1021 117.882 22.3726C119.463 20.6431 120.38 18.413 120.473 16.0754C120.473 11.2432 115.825 5.81778 110.073 5.71252C108.057 5.71252 86.864 5.81778 86.864 5.81778V39.8056H91.8093V25.7301L105.934 25.8258L116.132 40.1118L122.086 39.9109C122.086 39.9109 114.558 29.548 111.83 25.5292ZM91.8477 21.4051V9.92273H108.7C113.847 9.92273 115.364 13.0325 115.258 16.1519C115.153 19.2713 112.637 21.2807 108.902 21.4817C105.166 21.6826 91.8477 21.4051 91.8477 21.4051Z"
              fill="#1D1D1B"/>
        <path d="M126.359 56.8091C127.326 56.7101 128.227 56.2702 128.897 55.5684C129.568 54.8667 129.965 53.9493 130.018 52.9816C129.921 51.8739 129.421 50.8399 128.61 50.0761C127.799 49.3122 126.735 48.8718 125.62 48.8384C124.765 48.8384 115.835 48.8384 115.835 48.8384V62.5216H117.938V56.8952H123.891L128.193 62.6364L130.699 62.5503C130.699 62.5503 127.54 58.407 126.359 56.8091ZM117.938 55.1537V50.5416H125.043C127.214 50.5416 127.847 51.7951 127.809 53.0486C127.771 54.3021 126.705 55.1154 125.13 55.192C123.555 55.2685 117.938 55.1537 117.938 55.1537Z"
              fill="#1D1D1B"/>
        <path d="M88.2755 56.7613C89.2515 56.668 90.1622 56.2316 90.8448 55.5304C91.5274 54.8291 91.9374 53.9087 92.0013 52.9338C91.9038 51.8139 91.3992 50.7679 90.5822 49.9926C89.7653 49.2173 88.6923 48.7661 87.565 48.7236C86.7007 48.7236 77.6264 48.7236 77.6264 48.7236L77.6072 62.5216H79.7293V56.7804L85.7789 56.8283C86.6117 56.8597 87.4457 56.8373 88.2755 56.7613ZM79.7293 55.0677V50.4269H86.9408C89.1494 50.4269 89.8215 51.6995 89.7447 52.9625C89.6679 54.2256 88.6116 55.0389 87.0176 55.1155C85.4236 55.192 79.7293 55.0677 79.7293 55.0677Z"
              fill="#1D1D1B"/>
        <path d="M128.375 5.81775H158.854L158.758 9.7409H133.628V20.2951L152.497 20.4004L152.603 24.2183L133.628 24.4192L133.522 36.0834L158.758 36.3896V40.0065L128.375 39.9109V5.81775Z"
              fill="#1D1D1B"/>
        <path d="M140.187 5.01392L144.018 0.38269L152.699 0.487946L140.187 5.01392Z" fill="#1D1D1B"/>
        <path d="M196.601 39.9108L202.564 39.8055L185.203 5.77942H178.644L161.283 39.8055L167.237 39.9108L171.836 30.7823L192.126 30.945L196.601 39.9108ZM173.958 26.5147L181.967 10.602L190.004 26.6678L173.958 26.5147Z"
              fill="#1D1D1B"/>
        <path d="M108.69 62.5216H111.398L103.534 48.9341H100.547L92.6447 62.4833H95.3526L97.4459 58.8472L106.683 58.9142L108.69 62.5216ZM98.3773 57.2014L102.026 50.8574L105.685 57.2684L98.3773 57.2014Z"
              fill="#1D1D1B"/>
        <path d="M139.466 48.781H136.72V51.4794H139.466V48.781Z" fill="#1D1D1B"/>
        <path d="M139.466 52.8572H136.72V62.5885H139.466V52.8572Z" fill="#1D1D1B"/>
        <path d="M147.235 58.1583C147.292 58.7441 147.498 59.3056 147.834 59.7896C148.171 60.2736 148.625 60.6639 149.155 60.9236C150.209 61.2163 151.297 61.3675 152.391 61.3734C153.54 61.409 154.683 61.2104 155.752 60.7897C156.52 60.4069 157.317 60.0912 157.317 59.0577C157.271 58.574 157.06 58.1205 156.719 57.7725C156.379 57.4245 155.929 57.2028 155.445 57.144C154.542 56.9718 153.044 56.6943 151.69 56.5221C150.317 56.4832 148.964 56.1811 147.705 55.6322C147.127 55.371 146.631 54.956 146.274 54.4327C145.917 53.9094 145.711 53.2981 145.679 52.6659C145.649 52.0337 145.808 51.4068 146.134 50.8639C146.46 50.3209 146.94 49.8859 147.513 49.6135C148.898 48.9681 150.402 48.6162 151.93 48.5801C157.893 48.5801 159.219 51.5177 159.18 52.9721C157.721 52.9721 157.788 53.0391 156.895 53.0391C156.857 52.6711 156.738 52.3161 156.545 51.9999C156.352 51.6838 156.091 51.4144 155.781 51.2115C154.714 50.6055 153.504 50.295 152.276 50.312C150.5 50.312 147.897 50.8287 147.897 52.4554C147.897 54.082 148.858 54.2926 150.327 54.4265C152.267 54.6142 154.192 54.9339 156.088 55.3834C157.471 55.7661 159.747 56.5986 159.804 59.1247C159.804 60.8184 158.239 61.7848 157.682 62.0623C156.013 62.6694 154.254 62.9929 152.478 63.0192C150.843 63.0311 149.219 62.7625 147.676 62.225C147.187 61.9092 144.901 60.7036 144.93 58.1774L147.235 58.1583Z"
              fill="#1D1D1B"/>
        <path d="M57.3172 0.0383301C44.421 0.0383301 33.9736 9.60698 33.9736 21.4721C33.9736 33.3372 44.421 42.9346 57.3172 42.9346C70.2133 42.9346 80.6608 33.3659 80.6608 21.4721C80.6608 9.57828 70.2133 0.0383301 57.3172 0.0383301ZM57.4996 38.5522C55.2064 38.58 52.9301 38.1567 50.8013 37.3067C48.6724 36.4566 46.7327 35.1965 45.0933 33.5984C43.4539 32.0002 42.1469 30.0956 41.2472 27.9934C40.3475 25.8913 39.8728 23.6329 39.8503 21.3477C39.9578 16.7556 41.864 12.3876 45.1612 9.17771C48.4585 5.96781 52.8852 4.17073 57.4948 4.17073C62.1044 4.17073 66.5311 5.96781 69.8284 9.17771C73.1257 12.3876 75.0318 16.7556 75.1394 21.3477C75.0837 25.9547 73.1941 30.3511 69.8862 33.5702C66.5784 36.7893 62.1229 38.5675 57.4996 38.5139V38.5522Z"
              fill="#1D1D1B"/>
    </g>
    <defs>
        <clipPath id="clip0_36_140">
            <rect width="236" height="63" fill="white"/>
        </clipPath>
    </defs>
</svg>
