<svg width="172" height="40" viewBox="0 0 172 40" fill="none" xmlns="http://www.w3.org/2000/svg">
    <path d="M59.5614 1.07143C61.7099 1.07143 63.2616 2.2619 63.2616 4.40476C63.1274 6.02219 62.6816 7.59861 61.9487 9.04762L52.7578 31.6667L42.3734 8.21429C41.6472 6.85473 41.2391 5.34882 41.1797 3.80952C41.1797 2.38095 42.3734 1.07143 44.9993 1.07143V0H29.721V1.07143C32.8244 1.07143 33.7793 2.14286 35.5697 6.30952L50.2512 40H51.0867L64.8133 6.66667C66.4844 2.7381 68.6329 0.952381 70.304 0.952381V0H59.6808V1.07143H59.5614ZM0 0V1.07143C4.29702 1.07143 5.25191 2.14286 5.25191 5.71429V31.9048C5.25191 37.5 4.41638 38.0952 0 38.0952V39.1667H30.0791L33.4212 28.5714L32.5857 28.3333C29.3629 36.3095 27.0951 37.5 20.2915 37.5H16.1138C10.8619 37.5 10.6232 37.381 10.6232 30.9524V7.14286C10.6232 2.26191 11.5781 1.19048 16.83 1.19048V0H0ZM124.494 1.07143V0H114.706L100.383 30.9524L85.4629 0H75.4365V1.07143C79.6142 1.07143 80.5691 2.38095 80.5691 6.19048V31.7857C80.5691 37.381 79.4948 37.9762 75.4365 37.9762V39.0476H87.6114V37.9762C83.4337 37.9762 82.4788 37.381 82.4788 31.7857V6.19048L97.6377 39.0476H98.5926L113.632 6.19048V31.7857C113.632 37.381 112.797 37.9762 108.142 37.9762V39.0476H124.494V37.9762C119.958 37.9762 119.242 37.2619 119.242 31.7857V5.59524C119.242 2.14286 120.316 1.07143 124.494 1.07143ZM140.608 7.26191C140.608 1.78571 141.443 1.07143 145.86 1.07143V0H129.865V1.07143C134.401 1.07143 135.117 1.78571 135.117 7.26191V31.7857C135.117 37.2619 134.282 37.9762 129.865 37.9762V39.0476H145.86V37.9762C141.324 37.9762 140.608 37.2619 140.608 31.7857V21.4286C140.608 20.3571 141.085 20 142.279 20H159.586C160.899 20 161.257 20.4762 161.257 21.7857V31.7857C161.257 37.2619 160.422 37.9762 156.006 37.9762V39.0476H172V37.9762C167.464 37.9762 166.748 37.2619 166.748 31.7857V7.26191C166.748 1.78571 167.584 1.07143 172 1.07143V0H156.006V1.07143C160.541 1.07143 161.257 1.78571 161.257 7.26191V16.4286C161.257 17.8571 160.899 18.2143 159.586 18.2143H142.16C140.966 18.2143 140.489 17.8571 140.489 16.9048V7.26191H140.608Z"
          fill="black"/>
</svg>
