<svg width="94" height="95" viewBox="0 0 94 95" fill="none" xmlns="http://www.w3.org/2000/svg">
    <path d="M93.9781 47.6286C93.9522 60.0829 88.9932 72.0197 80.1867 80.8262C71.3801 89.6327 59.4434 94.5917 46.9891 94.6177C46.7949 94.6177 46.6087 94.5406 46.4714 94.4033C46.3341 94.266 46.2569 94.0797 46.2569 93.8855C46.2569 93.6914 46.3341 93.5051 46.4714 93.3678C46.6087 93.2305 46.7949 93.1534 46.9891 93.1534C57.5243 93.1535 67.7337 89.5005 75.8774 82.8168C84.0212 76.1332 89.5955 66.8326 91.6504 56.4996C93.7054 46.1667 92.1139 35.441 87.147 26.15C82.1802 16.859 74.1454 9.57772 64.4118 5.54682C54.6782 1.51592 43.848 0.984848 33.7667 4.04409C23.6854 7.10332 14.9768 13.5636 9.12475 22.324C3.27274 31.0845 0.639456 41.6031 1.6736 52.0875C2.70774 62.5719 7.34531 72.3733 14.7961 79.8216C14.9283 79.9599 15.0022 80.1439 15.0022 80.3352C15.0022 80.5266 14.9283 80.7105 14.7961 80.8488C14.6579 80.9828 14.4749 81.0607 14.2825 81.0674C14.0892 81.0652 13.9045 80.9866 13.7689 80.8488C8.30317 75.3851 4.26944 68.6576 2.02509 61.2624C-0.219263 53.8672 -0.604944 46.0325 0.902217 38.4526C2.40938 30.8728 5.76285 23.7816 10.6655 17.8075C15.5682 11.8334 21.8687 7.16069 29.0088 4.20348C36.1489 1.24626 43.9082 0.0958039 51.5992 0.854028C59.2902 1.61225 66.6754 4.25575 73.1006 8.55031C79.5258 12.8449 84.7926 18.6579 88.4343 25.4744C92.076 32.2909 93.9802 39.9003 93.9781 47.6286Z"
          fill="#082C36"/>
    <path d="M58.9112 56.3707C58.8841 59.2018 57.8587 61.9325 56.0155 64.0815C54.1723 66.2305 51.6297 67.66 48.8358 68.118L47.7431 68.3038V75.1554C47.7445 75.2511 47.7269 75.346 47.6913 75.4348C47.6557 75.5236 47.6029 75.6044 47.5357 75.6725C47.4686 75.7406 47.3886 75.7947 47.3004 75.8317C47.2122 75.8686 47.1175 75.8876 47.0218 75.8876C46.8277 75.8876 46.6414 75.8105 46.5041 75.6732C46.3668 75.5358 46.2897 75.3496 46.2897 75.1554V68.3912L45.1969 68.2054C42.3803 67.7542 39.8159 66.3161 37.9622 64.148C36.1084 61.9799 35.0861 59.2233 35.0779 56.3707C35.0779 56.1766 35.155 55.9903 35.2923 55.853C35.4296 55.7157 35.6159 55.6386 35.81 55.6386C35.9057 55.6386 36.0004 55.6576 36.0886 55.6945C36.1768 55.7314 36.2568 55.7855 36.3239 55.8537C36.391 55.9218 36.4439 56.0026 36.4795 56.0914C36.5151 56.1801 36.5327 56.2751 36.5313 56.3707C36.6191 59.0872 37.7599 61.6631 39.7126 63.5537C41.6652 65.4442 44.2766 66.5013 46.9945 66.5013C49.7125 66.5013 52.3238 65.4442 54.2765 63.5537C56.2291 61.6631 57.37 59.0872 57.4578 56.3707C57.4578 50.5135 53.5129 46.6014 46.9235 45.902C44.2708 45.7715 41.7519 44.698 39.8205 42.875C38.2291 41.1113 37.4002 38.7896 37.5148 36.4168C37.5137 34.219 38.2759 32.089 39.6711 30.3909C41.0663 28.6927 43.0079 27.5318 45.1641 27.1064L46.2569 26.8988V20.0908C46.2555 19.9952 46.273 19.9002 46.3086 19.8114C46.3442 19.7227 46.3971 19.6419 46.4642 19.5737C46.5314 19.5056 46.6114 19.4515 46.6996 19.4146C46.7878 19.3776 46.8825 19.3586 46.9781 19.3586C47.0743 19.3586 47.1695 19.3776 47.2583 19.4144C47.3472 19.4512 47.4279 19.5051 47.4958 19.5731C47.5638 19.6411 47.6178 19.7218 47.6546 19.8106C47.6914 19.8994 47.7103 19.9947 47.7103 20.0908V26.9315L48.8031 27.1392C50.9593 27.5645 52.9009 28.7255 54.2961 30.4236C55.6913 32.1218 56.4535 34.2518 56.4524 36.4496C56.4539 36.5452 56.4363 36.6401 56.4007 36.7289C56.3651 36.8177 56.3122 36.8985 56.2451 36.9666C56.178 37.0347 56.098 37.0889 56.0098 37.1258C55.9215 37.1627 55.8269 37.1817 55.7312 37.1817C55.6351 37.1817 55.5399 37.1628 55.451 37.126C55.3622 37.0892 55.2815 37.0353 55.2135 36.9673C55.1455 36.8993 55.0916 36.8186 55.0548 36.7297C55.018 36.6409 54.9991 36.5457 54.9991 36.4496C55.0389 35.3706 54.8608 34.2947 54.4753 33.2861C54.0899 32.2776 53.5051 31.3571 52.7558 30.5797C52.0066 29.8023 51.1083 29.1839 50.1146 28.7615C49.121 28.3392 48.0524 28.1215 46.9727 28.1215C45.893 28.1215 44.8244 28.3392 43.8307 28.7615C42.8371 29.1839 41.9388 29.8023 41.1895 30.5797C40.4403 31.3571 39.8555 32.2776 39.47 33.2861C39.0846 34.2947 38.9065 35.3706 38.9463 36.4496C38.9463 41.2031 41.6673 43.9132 47.0437 44.4814C54.4855 45.2682 58.9112 49.7267 58.9112 56.3707Z"
          fill="#082C36"/>
</svg>
