<svg id="Calque_1" data-name="Calque 1" xmlns="http://www.w3.org/2000/svg" viewBox="0 0 96 96"><defs><style>.cls-1{fill:#082c36;}</style></defs><path class="cls-1" d="M96.14,60.36c-.07.65-.11,1.3-.2,2a11.07,11.07,0,0,1-5.48,8.11A21.77,21.77,0,0,1,83.66,73a42.74,42.74,0,0,1-8.21.91h-.26c-.1-.27,0-.36.24-.38a17.19,17.19,0,0,0,3.87-.8,9.23,9.23,0,0,0,6.21-6.44A20.54,20.54,0,0,0,86,56.41a11.54,11.54,0,0,0-7.66-9,12.8,12.8,0,0,0-3.54-.9.52.52,0,0,1-.27-.11c.3-.07.6-.15.9-.21a9.27,9.27,0,0,0,6.4-4.72,12.71,12.71,0,0,0,1.28-3.26,18.54,18.54,0,0,0-.43-10.1,7.85,7.85,0,0,0-6.88-5.56,9.39,9.39,0,0,0-1.19-.07H68.25a.44.44,0,0,0-.5.32q-7.06,17.52-14.15,35Q50.54,65.41,47.46,73a7.41,7.41,0,0,1-.5.85L34,41.94c-4.35,10.69-8.67,21.27-13,31.85h-.13l-21-51.51H10.13a.45.45,0,0,1,.5.34q6.6,16.83,13.22,33.66l1.74,4.43c0,.09.09.19.15.34a1.54,1.54,0,0,0,.15-.27q3.88-9.51,7.76-19a.83.83,0,0,0,0-.54L26.14,22.72c-.06-.13-.11-.26-.17-.43l.37,0h9.89a.44.44,0,0,1,.49.35q5.94,15.11,11.87,30.22l3.1,7.86c0,.11.09.22.17.39.07-.16.12-.26.17-.36Q56.8,48.9,61.58,37.07a1.67,1.67,0,0,0,.11-.63V22.15l.4,0c4.51,0,9,0,13.53,0A25.86,25.86,0,0,1,85.52,24a11.63,11.63,0,0,1,5.35,4.14,10.6,10.6,0,0,1,1.73,7c-.3,3.73-2.38,6.36-5.39,8.35a19.06,19.06,0,0,1-6.74,2.68l-.29.08v.12l.6.11A27.08,27.08,0,0,1,89.25,49a12.26,12.26,0,0,1,5.68,5.57,12.11,12.11,0,0,1,1.16,4.91c0,.12,0,.23,0,.35Z"/></svg>