<svg width="81" height="93" viewBox="0 0 81 93" fill="none" xmlns="http://www.w3.org/2000/svg">
    <path d="M14.5917 68.5615C18.1045 70.3751 26.3623 75.3086 36.7602 72.2427C47.1581 69.1768 52.1517 66.7371 66.1057 68.5615C70.0509 68.8746 68.7214 82.045 68.7214 82.045V91.9767L12.6353 91.5017V76.3882C12.7485 73.6737 13.4142 71.0106 14.5917 68.5615Z"
          fill="#13667A"/>
    <path d="M39.992 44.4661C38.6842 44.4661 26.2975 32.7316 26.2975 32.7316L55.6754 32.3861C55.6754 32.3861 41.3215 44.4661 39.992 44.4661Z"
          fill="#13667A"/>
    <path d="M80.3083 91.1346H69.2294L69.2943 90.4221L69.3807 89.3426V77.2302C69.3974 74.2208 68.6928 71.2512 67.3258 68.5694C65.9588 65.8875 63.9691 63.5714 61.5228 61.8143L41.2242 45.9235L40.5649 45.4054L41.2242 44.898L62.474 28.5646C64.5939 26.9354 66.3167 24.8476 67.5129 22.4581C68.7092 20.0686 69.3478 17.4394 69.3807 14.7681V1.36019H80.3083C80.4015 1.37452 80.4967 1.36692 80.5864 1.33798C80.6761 1.30905 80.7579 1.25958 80.825 1.19352C80.8922 1.12746 80.943 1.04664 80.9734 0.957497C81.0038 0.868355 81.0129 0.773357 81 0.680076C81.0129 0.586795 81.0038 0.491797 80.9734 0.402655C80.943 0.313513 80.8922 0.232692 80.825 0.166634C80.7579 0.100575 80.6761 0.0511066 80.5864 0.0221705C80.4967 -0.00676556 80.4015 -0.0143689 80.3083 -3.33325e-05H0.680967C0.588605 -0.0125093 0.494605 -0.00351314 0.406295 0.0262539C0.317985 0.056021 0.237751 0.105755 0.171846 0.171579C0.105941 0.237403 0.0561459 0.317539 0.0263422 0.40574C-0.00346141 0.493942 -0.0124686 0.587827 2.26684e-05 0.680076C-0.0148272 0.772757 -0.00746601 0.867634 0.0215024 0.956924C0.0504707 1.04621 0.100221 1.12737 0.166672 1.19374C0.233122 1.26011 0.31438 1.3098 0.40378 1.33873C0.493179 1.36766 0.588172 1.37502 0.680967 1.36019H11.6193V14.4334C11.6024 17.1884 12.2485 19.9071 13.5031 22.3606C14.7577 24.8142 16.5842 26.9307 18.8287 28.5322L39.7758 44.9088L40.4352 45.427L39.765 45.9343L19.2286 61.7604C16.8731 63.5261 14.9517 65.8051 13.6107 68.424C12.2696 71.043 11.5442 73.9329 11.4896 76.8739V89.2994L11.5761 90.3789L11.6301 91.0482H10.96L9.87913 91.113H0.680967C0.590845 91.0971 0.498225 91.1025 0.410588 91.1289C0.322951 91.1552 0.242753 91.2018 0.176473 91.2649C0.110192 91.3279 0.0596866 91.4057 0.029035 91.4918C-0.00161657 91.5779 -0.0115549 91.6701 2.26684e-05 91.7607C2.26684e-05 92.2357 0.216196 92.4517 0.670159 92.4517H80.3083C80.4025 92.4664 80.4989 92.4587 80.5895 92.4292C80.6802 92.3997 80.7626 92.3492 80.8301 92.2819C80.8975 92.2145 80.948 92.1322 80.9776 92.0417C81.0071 91.9511 81.0148 91.8549 81 91.7607C81 91.3505 80.7839 91.1346 80.3083 91.1346ZM40.0893 43.365L19.6718 27.3015C17.5793 25.8339 15.8759 23.8797 14.7084 21.6078C13.5409 19.3358 12.9444 16.8143 12.9704 14.2607V1.18746H68.0188V14.7681C68.0013 17.2452 67.406 19.6843 66.2803 21.8917C65.1546 24.0991 63.5294 26.0142 61.5336 27.485L40.9972 43.365L40.5865 43.6781L40.0893 43.365ZM67.4892 91.0698L66.4083 91.1346H12.8191L12.8839 90.4221L12.9812 89.3426V76.8955C12.9691 74.1481 13.6199 71.4383 14.8786 68.9954C16.1373 66.5525 17.9668 64.4485 20.2122 62.8615L40.1001 47.4997L40.5 47.1866L40.8999 47.4997L60.6906 63.0558C62.9545 64.6643 64.8007 66.7899 66.0755 69.2555C67.3502 71.7211 68.0165 74.4553 68.0188 77.2302V89.2994L68.1161 90.3789V91.0482L67.4892 91.0698Z"
          fill="#082C36"/>
    <path d="M40.1434 60.1087C42.4834 60.1087 44.3803 58.2141 44.3803 55.8769C44.3803 53.5398 42.4834 51.6451 40.1434 51.6451C37.8033 51.6451 35.9064 53.5398 35.9064 55.8769C35.9064 58.2141 37.8033 60.1087 40.1434 60.1087Z"
          fill="#13667A"/>
    <path d="M46.4448 62.419C47.2268 62.419 47.8607 61.7858 47.8607 61.0048C47.8607 60.2237 47.2268 59.5906 46.4448 59.5906C45.6628 59.5906 45.0289 60.2237 45.0289 61.0048C45.0289 61.7858 45.6628 62.419 46.4448 62.419Z"
          fill="#13667A"/>
</svg>
