<svg width="109" height="94" viewBox="0 0 109 94" fill="none" xmlns="http://www.w3.org/2000/svg">
    <path d="M47.7882 19.4126C47.7065 16.1635 46.8045 12.9879 45.1662 10.1807C43.5279 7.37351 41.2064 5.0259 38.4174 3.35601C35.6284 1.68612 32.4625 0.748148 29.2137 0.629243C25.965 0.510338 22.7389 1.21436 19.8353 2.6759C16.9316 4.13743 14.4446 6.30905 12.6054 8.98896C10.7661 11.6689 9.63433 14.7701 9.31513 18.0045C8.99594 21.2388 9.49971 24.5014 10.7796 27.489C12.0596 30.4765 14.0741 33.0922 16.6361 35.0928C11.6771 37.3687 7.47453 41.0179 4.52609 45.6081C1.57766 50.1982 0.00694473 55.5371 0 60.9922L0 76.1318H27.7989C27.7989 75.5586 27.9071 75.0504 27.9936 74.4556H1.68741V60.9922C1.69114 55.6906 3.2634 50.5085 6.20631 46.0981C9.14922 41.6878 13.3313 38.2462 18.2262 36.2067C20.7314 37.7938 23.5701 38.7798 26.52 39.0874C29.4699 39.3951 32.451 39.0161 35.23 37.9801C35.7983 37.7737 36.3544 37.5355 36.8958 37.2664C36.8988 36.6116 36.9458 35.9577 37.0364 35.3091L36.7768 35.4605C36.3009 35.7092 35.8033 35.9471 35.3057 36.1526C33.1685 37.0633 30.8686 37.5305 28.5453 37.526C25.6689 37.5329 22.836 36.8231 20.303 35.4605C19.6646 35.1451 19.05 34.7836 18.4641 34.3791C15.9865 32.6453 13.9977 30.3025 12.6894 27.5766C11.3811 24.8507 10.7975 21.8337 10.9949 18.8167C11.1923 15.7997 12.164 12.8844 13.8163 10.3522C15.4687 7.81987 17.7459 5.75601 20.4282 4.35964C23.1106 2.96328 26.1077 2.28154 29.1303 2.38018C32.1529 2.47881 35.0991 3.35451 37.6847 4.92278C40.2702 6.49106 42.408 8.699 43.8916 11.3336C45.3752 13.9682 46.1547 16.9406 46.1549 19.9641C46.16 20.0325 46.16 20.1012 46.1549 20.1696C46.1555 20.8206 46.1121 21.4709 46.0251 22.1161C46.5833 21.7725 47.1612 21.4619 47.7558 21.1861C47.7558 20.7535 47.7558 20.321 47.7558 19.8884L47.7882 19.4126Z"
          fill="#082C36"/>
    <path d="M82.8776 76.0777C82.8776 75.5045 82.7803 74.9963 82.6938 74.4015C81.9924 69.707 80.1331 65.2609 77.2835 61.4643C74.434 57.6678 70.6838 54.6402 66.3713 52.6547C68.612 50.9067 70.4375 48.6842 71.7168 46.1469C72.996 43.6096 73.6972 40.8206 73.77 37.9801C73.77 37.8071 73.77 37.6449 73.77 37.4827C73.77 37.0393 73.77 36.5959 73.77 36.1526C73.5353 32.7552 72.4048 29.4806 70.4935 26.6618C68.5821 23.843 65.9581 21.5806 62.8884 20.1047C62.3433 19.8355 61.7836 19.5973 61.2118 19.3909C56.8792 17.7764 52.1099 17.7764 47.7774 19.3909C47.2056 19.5973 46.6459 19.8355 46.1008 20.1047C43.0462 21.5875 40.4374 23.8504 38.5381 26.6645C36.6388 29.4785 35.5163 32.7441 35.2841 36.1309C35.2841 36.5743 35.23 37.0177 35.23 37.4611C35.23 37.6233 35.23 37.7855 35.23 37.9585C35.2983 40.8017 35.9963 43.5945 37.2738 46.1357C38.5512 48.6769 40.3764 50.9033 42.6178 52.6547C38.3054 54.6402 34.5552 57.6678 31.7056 61.4643C28.8561 65.2609 26.9967 69.707 26.2954 74.4015C26.2089 74.9638 26.144 75.4829 26.1115 76.0777C26.0358 76.8887 25.9926 77.7214 25.9926 78.5541V93.6395H82.9966V78.5C82.9966 77.7214 82.9534 76.8887 82.8776 76.0777ZM36.885 37.4827V37.2664C36.8934 36.6118 36.9403 35.9582 37.0256 35.3091C37.3691 32.5532 38.3596 29.9175 39.9161 27.6172C41.4726 25.3169 43.551 23.4171 45.9818 22.0728C46.5514 21.7425 47.1402 21.4463 47.745 21.1861C52.067 19.3981 56.9222 19.3981 61.2442 21.1861C61.8483 21.4358 62.437 21.7211 63.0073 22.0404C65.4382 23.3846 67.5166 25.2844 69.0731 27.5848C70.6296 29.8851 71.62 32.5207 71.9636 35.2766C72.0488 35.9257 72.0958 36.5793 72.1042 37.234V37.4502C72.1016 40.2859 71.4114 43.0787 70.0927 45.5893C68.774 48.0998 66.8661 50.2533 64.5325 51.8652C64.0549 52.2119 63.5524 52.5227 63.029 52.7952C62.9235 52.8704 62.8113 52.9356 62.6937 52.9899C60.722 54.0519 58.5611 54.7169 56.3334 54.9472C55.771 55.0121 55.2518 55.0445 54.6352 55.0554H54.2891C53.7158 55.0554 53.2074 55.0554 52.5908 54.9472C50.3631 54.7169 48.2023 54.0519 46.2306 52.9899C46.113 52.9356 46.0008 52.8704 45.8953 52.7952C45.3719 52.5227 44.8693 52.2119 44.3918 51.8652C42.0747 50.2493 40.1822 48.0978 38.8752 45.5937C37.5683 43.0897 36.8855 40.3071 36.885 37.4827ZM81.32 91.9634H27.6691V78.5541C27.6691 77.7214 27.6691 76.8887 27.7881 76.0777C27.7881 75.5045 27.9071 74.9963 27.9936 74.4015C28.711 69.8635 30.5788 65.5848 33.419 61.9729C36.2592 58.3611 39.9772 55.5366 44.2187 53.7685C46.6642 55.3314 49.436 56.3118 52.3204 56.6342C52.8767 56.7029 53.4365 56.739 53.997 56.7423H55.0138C55.5743 56.739 56.1341 56.7029 56.6904 56.6342C59.5748 56.3118 62.3467 55.3314 64.7921 53.7685C69.0336 55.5366 72.7517 58.3611 75.5919 61.9729C78.432 65.5848 80.2998 69.8635 81.0172 74.4015C81.1037 74.953 81.1794 75.4829 81.2227 76.0777C81.2984 76.8887 81.3417 77.7214 81.3417 78.5541L81.32 91.9634Z"
          fill="#082C36"/>
    <path d="M92.3639 35.0928C94.9205 33.0914 96.93 30.4768 98.2058 27.4915C99.4816 24.5063 99.9823 21.2472 99.6616 18.0167C99.3408 14.7863 98.209 11.6892 96.3711 9.01298C94.5332 6.33673 92.0488 4.16803 89.1485 2.70819C86.2482 1.24835 83.026 0.544672 79.781 0.662474C76.536 0.780277 73.3734 1.71574 70.5866 3.38204C67.7999 5.04834 65.4793 7.39146 63.8404 10.1939C62.2015 12.9964 61.2973 16.1674 61.2118 19.4126C61.2118 19.5748 61.2118 19.7478 61.2118 19.9208C61.2118 20.3534 61.2118 20.7859 61.2118 21.2185C61.8193 21.4682 62.4117 21.7535 62.9857 22.0728C62.8987 21.4276 62.8553 20.7773 62.8559 20.1263C62.8508 20.0579 62.8508 19.9892 62.8559 19.9208C62.8525 16.8938 63.6299 13.917 65.113 11.2779C66.5961 8.63878 68.7347 6.42658 71.3225 4.85491C73.9102 3.28323 76.8596 2.40517 79.8858 2.30552C82.912 2.20588 85.9128 2.888 88.5984 4.28604C91.284 5.68407 93.5636 7.75078 95.2172 10.2866C96.8708 12.8224 97.8424 15.7416 98.0382 18.7623C98.2341 21.7831 97.6476 24.8033 96.3353 27.5313C95.023 30.2593 93.0293 32.6029 90.5467 34.3358C89.9608 34.7404 89.3462 35.1018 88.7079 35.4172C86.1748 36.7798 83.342 37.4897 80.4655 37.4827C78.1423 37.4873 75.8423 37.02 73.7051 36.1093C73.2075 35.9039 72.7099 35.6659 72.234 35.4172L71.942 35.2658C72.0326 35.9144 72.0796 36.5683 72.0826 37.2232C72.624 37.4922 73.1801 37.7305 73.7483 37.9369C76.5273 38.9729 79.5085 39.3518 82.4584 39.0442C85.4083 38.7365 88.2469 37.7505 90.7522 36.1634C95.6579 38.2025 99.8492 41.6493 102.797 46.0684C105.744 50.4875 107.316 55.6807 107.313 60.9922V74.4015H81.0064C81.0929 74.953 81.1578 75.4829 81.2011 76.0777H109V60.9382C108.98 55.4928 107.403 50.1666 104.456 45.5875C101.508 41.0083 97.3129 37.367 92.3639 35.0928Z"
          fill="#082C36"/>
</svg>
