<svg width="1440" height="67" viewBox="0 0 1440 67" fill="none" xmlns="http://www.w3.org/2000/svg">
    <mask id="mask0_93_161" style="mask-type:alpha" maskUnits="userSpaceOnUse" x="0" y="0" width="1440" height="67">
        <rect width="1440" height="67" fill="#C4C4C4"/>
    </mask>
    <g mask="url(#mask0_93_161)">
        <path d="M1505.91 -15.4967C1440.19 -19.3915 1374.33 -21.0032 1308.49 -20.8689C1292.03 -20.8689 1275.57 -20.7305 1259.11 -20.4538C1242.63 -20.1191 1226.14 -20.9352 1209.78 -22.8957C1193.42 -24.7393 1177.17 -27.2545 1160.84 -29.208C1152.67 -30.1848 1144.49 -30.954 1136.3 -31.5156C1128.09 -32.0407 1119.88 -32.1139 1111.63 -32.1872C1095.18 -32.3092 1078.71 -32.6634 1062.26 -33.1273C1054.02 -33.4448 1045.79 -33.6401 1037.57 -34.0675L1025.24 -34.6413L1012.91 -35.3739C980.036 -37.3274 947.229 -40.5141 914.691 -45.4346C882.099 -50.1731 849.927 -57.242 818.444 -66.5816C787.082 -76.1661 755.797 -86.1169 724.051 -94.2118C708.185 -98.3875 692.088 -101.928 676.043 -105.054L663.923 -107.24C659.87 -107.911 655.804 -108.46 651.751 -109.108C649.718 -109.401 647.686 -109.743 645.653 -109.999L639.529 -110.731C635.45 -111.171 631.384 -111.757 627.293 -112.099L615.007 -113.125C612.961 -113.32 610.903 -113.43 608.857 -113.515L602.695 -113.796C594.487 -114.333 586.266 -114.199 578.045 -114.333C561.59 -114.077 545.213 -113.039 528.809 -111.549C495.99 -108.888 463.145 -106.666 430.364 -103.467C413.999 -101.867 397.659 -99.9626 381.396 -97.5573C365.134 -95.152 348.935 -92.3682 332.966 -88.5955C325.001 -86.6541 317.049 -84.6639 309.224 -82.2342C301.391 -79.9158 293.706 -77.1599 286.211 -73.9806C271.227 -67.5218 256.92 -59.7198 242.742 -51.808C235.62 -47.8643 228.512 -43.9083 221.288 -40.1112C217.695 -38.1943 214.026 -36.4483 210.395 -34.5558L204.846 -31.9429C203.005 -31.0517 201.151 -30.197 199.259 -29.4034L193.634 -26.9615C191.742 -26.1679 189.798 -25.4841 187.906 -24.7393C184.071 -23.2009 180.235 -21.98 176.284 -20.698C174.354 -20.0142 172.347 -19.477 170.365 -18.9764L164.42 -17.3648L152.402 -14.6176C120.255 -7.71503 87.6204 -3.08317 54.7615 -0.759689C21.9172 1.67185 -11.0669 1.86359 -43.9398 -0.185875C-11.0678 1.76198 21.9078 1.46824 54.736 -1.06493C87.5634 -3.48718 120.16 -8.21287 152.261 -15.2037L164.266 -17.9386L170.199 -19.5503C172.168 -20.0997 174.162 -20.588 176.093 -21.2718C179.928 -22.4927 183.879 -23.7137 187.663 -25.3132C189.555 -26.0579 191.499 -26.7417 193.365 -27.5353L198.991 -29.9772C200.87 -30.7708 202.711 -31.6255 204.552 -32.5046L210.076 -35.1175C213.707 -36.9733 217.363 -38.7804 220.943 -40.6851C228.154 -44.4822 235.249 -48.4503 242.371 -52.394C256.588 -60.318 270.907 -68.1566 285.943 -74.6521C293.477 -77.85 301.199 -80.6263 309.071 -82.9669C316.908 -85.4088 324.886 -87.4111 332.864 -89.3525C348.858 -93.1618 365.095 -95.9457 381.358 -98.3876C397.621 -100.829 413.986 -102.734 430.364 -104.358C463.119 -107.655 495.977 -109.84 528.809 -112.538C545.187 -114.052 561.667 -115.115 578.134 -115.383C586.381 -115.261 594.627 -115.383 602.848 -114.883L609.023 -114.59C611.082 -114.504 613.14 -114.407 615.198 -114.211L627.511 -113.198C631.615 -112.868 635.693 -112.282 639.784 -111.83L645.921 -111.122C647.967 -110.854 650 -110.524 652.033 -110.219C656.098 -109.596 660.177 -108.998 664.242 -108.363L676.388 -106.19C692.536 -103.076 708.607 -99.5474 724.486 -95.3718C756.308 -87.1913 787.581 -77.2406 818.904 -67.6316C850.321 -58.2713 882.43 -51.1779 914.959 -46.4114C947.459 -41.5275 980.163 -38.2431 1013.07 -36.2652L1025.4 -35.5204L1037.72 -34.9343C1045.94 -34.4948 1054.16 -34.2872 1062.38 -33.9576C1078.84 -33.4814 1095.29 -33.1151 1111.75 -32.9686C1119.97 -32.8953 1128.23 -32.8099 1136.45 -32.2849C1144.67 -31.7598 1152.88 -30.9296 1161.05 -29.9406C1177.39 -27.9627 1193.64 -25.4231 1209.98 -23.5794C1226.3 -21.6127 1242.75 -20.7965 1259.2 -21.1375C1275.67 -21.3817 1292.13 -21.4997 1308.59 -21.4915C1374.34 -21.4061 1440.22 -19.5869 1505.91 -15.4967Z"
              fill="#082C36"/>
        <path d="M1506.41 -4.42238C1440.42 -9.46766 1374.19 -11.2201 1308 -9.67249C1291.46 -9.30621 1274.92 -8.65909 1258.41 -7.82883C1250.15 -7.4137 1241.88 -6.85213 1233.59 -6.75446C1225.31 -6.65678 1216.97 -6.75441 1208.76 -7.01081C1192.14 -7.56024 1175.7 -8.83003 1159.18 -9.67249C1142.67 -10.6674 1126.12 -10.8264 1109.6 -10.1487C1043.46 -7.70676 976.954 -9.69693 911.43 -19.3792C878.68 -24.2141 846.357 -31.3974 814.736 -40.8681L802.974 -44.7019L797.093 -46.6188L791.263 -48.6334L767.943 -56.7772C752.409 -62.2105 736.862 -67.6559 721.226 -72.7962C713.427 -75.4212 705.564 -77.8754 697.714 -80.3539C693.789 -81.5749 689.825 -82.7104 685.875 -83.8947L679.955 -85.6529L673.997 -87.289C658.144 -91.7943 642.034 -95.4695 625.861 -98.6317L613.69 -100.829C609.611 -101.489 605.52 -102.05 601.429 -102.624L595.305 -103.491L589.142 -104.138C585.038 -104.541 580.934 -105.042 576.817 -105.359C568.571 -105.835 560.337 -106.58 552.065 -106.58L545.865 -106.715H542.771C541.735 -106.715 540.699 -106.715 539.677 -106.715L527.275 -106.434C523.145 -106.434 519.016 -106.116 514.886 -105.945L502.485 -105.384C494.225 -105.001 485.966 -104.594 477.707 -104.163C461.189 -103.271 444.67 -102.197 428.203 -100.707C411.736 -99.2177 395.332 -97.3009 379.057 -94.9322C362.713 -92.5036 346.517 -89.2431 330.537 -85.1645L324.554 -83.6139C322.572 -83.0766 320.616 -82.3929 318.647 -81.8557C314.709 -80.6347 310.746 -79.5359 306.897 -78.0952C303.049 -76.6544 299.098 -75.4579 295.391 -73.8096L289.561 -71.502L283.974 -68.9258C269.117 -62.0151 255.105 -53.5538 241.195 -45.0193C227.284 -36.4848 213.476 -27.7061 198.927 -20.1728C195.334 -18.2071 191.601 -16.5099 187.906 -14.6907C186.078 -13.7628 184.16 -13.0301 182.281 -12.1877C180.401 -11.3452 178.522 -10.515 176.604 -9.74575C168.951 -6.70795 161.117 -4.10287 153.143 -1.94387C121.286 6.76091 88.6567 12.6464 55.6692 15.638C22.7032 18.7694 -10.4997 18.9043 -43.4924 16.0409C-10.5146 18.7957 22.6625 18.5545 55.5925 15.3205C88.538 12.2313 121.116 6.25185 152.913 -2.54213C160.86 -4.7109 168.668 -7.31999 176.297 -10.3562C178.202 -11.1132 180.056 -11.9679 181.948 -12.7981C183.84 -13.6284 185.784 -14.3732 187.561 -15.3133C191.23 -17.1081 194.963 -18.8175 198.543 -20.7833C213.054 -28.3654 226.875 -37.0709 240.734 -45.642C254.593 -54.2132 268.657 -62.7354 283.577 -69.6461L289.164 -72.2345L294.879 -74.591C298.651 -76.2393 302.55 -77.4847 306.463 -78.8888C310.375 -80.2929 314.287 -81.4773 318.238 -82.686C320.207 -83.2721 322.176 -83.9069 324.17 -84.4563L330.154 -86.0192C346.156 -90.0945 362.373 -93.355 378.737 -95.7869C395.102 -98.2288 411.557 -100.097 428.037 -101.586C444.517 -103.076 461.035 -104.187 477.566 -105.091C485.826 -105.555 494.089 -105.962 502.357 -106.312L514.758 -106.898C518.888 -107.069 523.018 -107.337 527.16 -107.398L539.587 -107.691C540.623 -107.691 541.658 -107.764 542.694 -107.752L545.801 -107.691L552.014 -107.569C560.299 -107.569 568.558 -106.873 576.83 -106.348C580.96 -106.031 585.077 -105.53 589.193 -105.127L595.369 -104.48L601.518 -103.613C605.61 -103.015 609.726 -102.49 613.805 -101.831L626.027 -99.6451C642.252 -96.495 658.387 -92.82 674.266 -88.3268L680.237 -86.6907L686.169 -84.9325C690.12 -83.7116 694.096 -82.6371 698.033 -81.4039C705.896 -78.962 713.772 -76.5201 721.571 -73.8584C737.22 -68.6937 752.767 -63.2361 768.301 -57.7906L791.697 -49.6834L797.527 -47.6566L803.396 -45.7397L815.12 -41.8937C846.683 -32.4288 878.945 -25.2376 911.635 -20.3803C977.018 -10.6127 1043.48 -8.59805 1109.56 -10.9667C1126.12 -11.6241 1142.7 -11.4448 1159.23 -10.4295C1175.76 -9.56261 1192.26 -8.28063 1208.79 -7.71899C1217.05 -7.40154 1225.32 -7.29168 1233.58 -7.43819C1241.84 -7.58471 1250.1 -8.08527 1258.37 -8.47598C1274.9 -9.28181 1291.44 -9.92895 1307.99 -10.2586C1374.19 -11.6173 1440.42 -9.6692 1506.41 -4.42238Z"
              fill="#082C36"/>
        <path d="M1506.91 6.6515C1440.58 0.380951 1373.86 -1.42244 1307.26 1.25481C1290.64 2.01181 1274.02 3.02528 1257.4 4.38054L1232.52 6.63928C1224.21 7.27419 1215.88 7.7585 1207.55 8.09222C1174.31 9.41087 1140.87 8.56837 1107.7 11.4987C1074.48 14.3181 1041.13 15.4308 1007.79 14.8319C974.441 14.2057 941.169 11.5139 908.183 6.77357C899.924 5.71133 891.741 4.16076 883.533 2.76887C879.416 2.10955 875.351 1.21825 871.272 0.4002L859.05 -2.04172L846.917 -4.93538C842.876 -5.93657 838.798 -6.79129 834.809 -7.96341C826.818 -10.2222 818.751 -12.2367 810.862 -14.8618L798.985 -18.6101L787.274 -22.8225C779.424 -25.5452 771.74 -28.6098 764.005 -31.5767L717.863 -49.8301C710.192 -52.8947 702.444 -55.8494 694.735 -58.853C687.025 -61.8565 679.252 -64.7258 671.44 -67.4729C663.629 -70.2201 655.804 -72.9306 647.954 -75.5679C644.029 -76.8743 640.04 -78.0098 636.089 -79.2308L630.157 -81.0622C628.163 -81.6483 626.155 -82.1855 624.161 -82.7471C608.224 -87.3192 592.04 -91.0649 575.68 -93.9677L563.367 -95.9579C561.335 -96.3242 559.263 -96.5195 557.192 -96.7759L551.004 -97.4963L544.816 -98.2289C542.745 -98.4975 540.661 -98.5463 538.59 -98.7294L526.15 -99.6086C521.995 -99.7917 517.84 -99.8283 513.684 -99.9382L507.445 -100.085C505.361 -100.085 503.277 -100.085 501.193 -100.085C492.874 -100.085 484.551 -99.987 476.224 -99.7917C459.603 -99.4376 442.982 -98.8027 426.362 -97.6062C409.741 -96.4096 393.197 -94.7247 376.743 -92.2584C360.257 -89.8965 343.948 -86.5237 327.916 -82.161C311.889 -77.8505 296.413 -71.8513 281.775 -64.274C267.242 -56.5331 253.193 -47.9923 239.699 -38.6949C226.07 -29.5377 212.569 -20.1974 198.467 -11.6873C184.419 -3.07108 169.485 4.14986 153.898 9.86263C122.475 20.6471 89.8804 28.0193 56.7304 31.8399C23.6292 35.8369 -9.85835 35.9722 -42.9938 32.2428C-9.84555 35.8738 23.6424 35.636 56.7304 31.5347C89.8132 27.6363 122.331 20.1903 153.667 9.33763C169.209 3.62387 184.097 -3.59725 198.096 -12.2123C212.159 -20.759 225.648 -30.0627 239.264 -39.2321C252.795 -48.5532 266.882 -57.1144 281.455 -64.8723C296.135 -72.4837 311.653 -78.5194 327.724 -82.8692C343.735 -87.2939 360.027 -90.7319 376.5 -93.1619C392.967 -95.6038 409.562 -97.362 426.183 -98.5707C442.803 -99.7795 459.424 -100.439 476.134 -100.805C484.453 -101 492.785 -101.11 501.129 -101.135C503.213 -101.135 505.297 -101.135 507.381 -101.135L513.633 -101C517.801 -100.891 521.982 -100.854 526.137 -100.683L538.628 -99.8039C540.699 -99.633 542.796 -99.572 544.855 -99.3155L551.068 -98.5952L557.282 -97.8626C559.353 -97.6184 561.424 -97.423 563.483 -97.0567L575.82 -95.0788C592.214 -92.1803 608.432 -88.4388 624.404 -83.8704C626.398 -83.3088 628.406 -82.7837 630.4 -82.1977L636.358 -80.3662C640.321 -79.1453 644.31 -77.9243 648.248 -76.7034C656.111 -74.0661 663.999 -71.4777 671.773 -68.6206C679.546 -65.7636 687.332 -62.9066 695.106 -60.0129C702.879 -57.1192 710.563 -54.079 718.26 -51.0144L764.427 -32.7C772.098 -29.7331 779.769 -26.5952 787.645 -23.9335L799.343 -19.7578L811.182 -15.9973C819.045 -13.3722 827.099 -11.3577 835.077 -9.08667C839.054 -7.86572 843.119 -7.05991 847.147 -6.05872L859.254 -3.16505L871.464 -0.649879C875.53 0.180374 879.583 1.07167 883.687 1.79204C891.882 3.18393 900.052 4.7468 908.298 5.80904C941.23 10.5822 974.452 13.3066 1007.75 13.965C1041.06 14.6008 1074.38 13.5248 1107.57 10.7417C1140.81 7.83581 1174.2 8.71488 1207.47 7.44508C1215.79 7.11949 1224.1 6.63926 1232.4 6.00436L1257.28 3.7822C1273.89 2.43916 1290.51 1.41768 1307.14 0.717667C1373.8 -1.79134 1440.55 0.191513 1506.91 6.6515Z"
              fill="#082C36"/>
        <path d="M1507.41 17.7379C1440.66 10.5953 1373.28 7.97025 1306.22 11.9872C1289.47 13.0372 1272.74 14.3314 1256.07 16.2972C1239.4 18.2629 1222.83 20.7293 1206.1 22.4874C1172.72 26.1503 1139.2 28.4946 1105.91 32.7924C1072.61 37.2752 1039.04 39.5923 1005.41 39.7274C1001.21 39.7274 997.014 39.8373 992.808 39.7274L980.214 39.4466L973.911 39.2879L967.608 38.9582L955.028 38.2256C950.821 38.0547 946.653 37.5908 942.46 37.2611L929.905 36.1867L917.388 34.7337L911.136 34.0011L908.004 33.6348L904.897 33.1586C871.599 28.578 838.765 21.3201 806.746 11.4622C802.705 10.3145 798.768 8.92258 794.817 7.55511L782.94 3.47707C779.015 2.04855 775.153 0.473503 771.254 -1.02828C767.354 -2.53006 763.43 -3.99518 759.607 -5.64347C744.265 -12.0779 728.922 -18.7933 713.721 -25.5818C698.519 -32.3703 683.343 -39.2443 668.001 -45.8497C664.166 -47.5224 660.33 -49.1707 656.494 -50.7336L644.988 -55.6174C637.24 -58.682 629.543 -61.8809 621.681 -64.7136C590.498 -76.4958 558.125 -85.653 524.961 -90.5613C516.638 -91.5136 508.34 -92.8079 499.966 -93.2108C495.785 -93.4917 491.617 -93.8702 487.424 -94.0533C483.23 -94.2364 479.037 -94.4074 474.843 -94.5051C458.069 -94.969 441.269 -94.9202 424.508 -94.1998C407.737 -93.526 391.013 -92.0304 374.403 -89.7188C357.802 -87.4326 341.407 -83.947 325.359 -79.2919C321.319 -78.2052 317.394 -76.85 313.456 -75.4336C309.518 -74.0173 305.644 -72.5155 301.796 -70.9527C297.948 -69.3898 294.214 -67.5584 290.456 -65.7758L287.656 -64.4328C286.722 -63.9688 285.827 -63.4438 284.92 -62.9432L279.473 -59.9518C265.026 -51.7958 251.474 -42.2845 238.075 -32.6389C224.676 -22.9933 211.495 -13.0547 197.725 -3.78759C184.062 5.58719 169.583 13.8263 154.447 20.8392C150.612 22.4264 146.776 24.1235 142.864 25.6131L136.983 27.7864C135.039 28.5312 133.07 29.2393 131.089 29.8865C127.113 31.2051 123.175 32.6214 119.16 33.7935C115.146 34.9657 111.169 36.2355 107.117 37.3344C90.9673 41.7969 74.5343 45.2634 57.9193 47.7125C24.678 52.5964 -9.25382 53.2801 -42.4824 48.4085C-9.24104 53.1824 24.7291 52.34 57.8682 47.4073C74.4583 44.9213 90.8621 41.4097 106.976 36.8948C111.029 35.8203 115.005 34.5627 118.994 33.3296C122.983 32.0964 126.934 30.7168 130.897 29.3859C132.879 28.7388 134.835 28.0184 136.778 27.2737L142.647 25.0759C146.482 23.5863 150.318 21.877 154.153 20.2897C169.244 13.2676 183.679 5.02885 197.303 -4.33704C211.034 -13.5553 224.152 -23.5184 237.589 -33.2128C251.026 -42.9072 264.553 -52.4185 279.039 -60.6112L284.498 -63.6269C285.406 -64.1275 286.3 -64.6525 287.234 -65.1165L290.047 -66.484C293.882 -68.2666 297.513 -70.1469 301.425 -71.6853C305.338 -73.2237 309.096 -74.9208 313.136 -76.2028C317.177 -77.4848 321.025 -78.9866 325.078 -80.0733C341.171 -84.7681 357.619 -88.2744 374.275 -90.5613C390.91 -92.8925 407.659 -94.4085 424.457 -95.1033C441.256 -95.8359 458.069 -95.9091 474.869 -95.4574C479.075 -95.3719 483.268 -95.1644 487.475 -95.0301C491.681 -94.8958 495.862 -94.4684 500.055 -94.1998C508.468 -93.7969 516.778 -92.5148 525.127 -91.5503C558.368 -86.6664 590.855 -77.5214 622.115 -65.7514C629.991 -62.9187 637.7 -59.7198 645.474 -56.6674L656.98 -51.7836C660.816 -50.1841 664.651 -48.548 668.487 -46.8997C683.829 -40.3065 698.992 -33.4692 714.207 -26.6562C744.661 -13.2257 775.013 0.754326 807.052 10.4243C839.022 20.2742 871.804 27.5321 905.05 32.1208L908.157 32.5848L911.277 32.9511L917.529 33.6958L930.02 35.1732L942.549 36.2477C946.73 36.5773 950.898 37.0535 955.092 37.2244L967.659 37.9204L973.95 38.2501L980.24 38.421L992.821 38.7384C997.014 38.8605 1001.22 38.7384 1005.41 38.7384C1039 38.6383 1072.54 36.358 1105.8 31.9133C1139.12 27.6521 1172.64 25.3689 1206.01 21.7182C1222.71 19.9845 1239.25 17.4449 1255.99 15.6134C1272.73 13.782 1289.42 12.3779 1306.18 11.3645C1373.29 7.57953 1440.68 10.3877 1507.41 17.7379Z"
              fill="#082C36"/>
        <path d="M1507.91 28.8119C1440.66 20.6559 1372.57 17.4937 1304.94 22.524C1296.48 23.0735 1288.07 23.9769 1279.63 24.7584C1271.22 25.7718 1262.79 26.6264 1254.42 27.9084C1250.24 28.5311 1246.03 29.0318 1241.86 29.7643L1229.35 31.8522L1204.33 36.211L1104.24 53.6829C1037.49 66.1642 969.054 68.1726 901.624 59.629L895.308 58.872L889.031 57.883L876.463 55.8928L873.331 55.3923C872.282 55.2091 871.247 54.9894 870.211 54.794L863.972 53.573L851.507 51.1311C847.377 50.2032 843.273 49.1898 839.156 48.2252L832.93 46.7723C830.884 46.2839 828.813 45.8321 826.78 45.2216L814.57 41.803L808.459 40.0937C806.413 39.5443 804.432 38.8727 802.412 38.1889C794.395 35.5394 786.277 33.1464 778.427 30.0574L766.549 25.6497C762.611 24.1479 758.776 22.4142 754.876 20.7659C750.977 19.1176 747.09 17.5303 743.242 15.8088L731.735 10.5464C727.9 8.82488 724.128 6.99342 720.331 5.17419L708.965 -0.28347C678.766 -15.0327 649.015 -30.6122 618.446 -44.5921L612.795 -47.2416L607.016 -49.6835L595.509 -54.7017C587.685 -57.8029 579.95 -61.1361 571.998 -63.9199L566.065 -66.081C564.096 -66.8014 562.127 -67.5584 560.107 -68.1811L548.089 -72.0881L545.085 -73.0527L542.029 -73.9074L535.943 -75.6045C531.865 -76.7033 527.838 -78.0464 523.695 -78.8401L511.358 -81.6727C509.299 -82.1855 507.215 -82.4907 505.131 -82.8936L498.892 -84.0047C490.595 -85.6774 482.156 -86.4466 473.769 -87.5211C456.922 -89.2197 439.991 -90.0349 423.051 -89.963C406.111 -89.9605 389.189 -88.941 372.383 -86.9106C355.568 -84.9494 338.973 -81.5372 322.802 -76.7156L316.806 -74.7376C314.799 -74.0783 312.791 -73.5167 310.848 -72.6498L304.903 -70.3421L301.975 -69.1944L299.124 -67.8636C295.289 -66.0566 291.453 -64.4327 287.873 -62.2838L282.388 -59.2437C280.573 -58.2181 278.847 -57.0337 277.07 -55.9471C262.929 -47.034 249.518 -37.1077 236.362 -26.9005C223.206 -16.6932 210.216 -6.29065 196.728 3.62354C193.404 6.13872 189.952 8.50738 186.5 10.9493C183.048 13.3912 179.583 15.65 176.118 17.982C172.653 20.3141 169.086 22.5118 165.468 24.6363L160.034 27.7986C159.114 28.3236 158.219 28.8608 157.298 29.3614L154.511 30.8388C139.645 38.6673 124.116 45.2879 108.088 50.6305C92.1521 56.076 75.7978 60.3337 59.1724 63.3652C25.931 69.4089 -8.58889 70.5444 -41.9837 64.5861C-8.57611 70.4223 25.8799 69.1891 59.1213 63.0477C75.7634 59.9683 92.1305 55.6617 108.076 50.1666C124.059 44.7822 139.541 38.1249 154.358 30.2649L157.132 28.7998C158.053 28.287 158.935 27.7497 159.843 27.2247L165.264 24.0625C168.869 21.9502 172.347 19.6304 175.901 17.4204C179.455 15.2105 182.83 12.7808 186.244 10.3877C189.658 7.99462 193.071 5.58933 196.383 3.06194C209.794 -6.84003 222.771 -17.267 235.927 -27.462C249.083 -37.6571 262.495 -47.6445 276.661 -56.5941C278.438 -57.6808 280.164 -58.8773 281.992 -59.903L287.502 -62.9676C291.108 -65.1409 295.007 -66.7647 298.804 -68.5962L301.668 -69.9271L304.609 -71.087L310.503 -73.4068C312.446 -74.2248 314.466 -74.8475 316.474 -75.519L322.495 -77.497C338.701 -82.3852 355.34 -85.8548 372.204 -87.863C389.05 -89.9254 406.016 -90.9653 422.999 -90.9764C439.978 -91.0478 456.948 -90.2326 473.833 -88.5345C482.233 -87.4356 490.71 -86.703 499.02 -85.0303L505.285 -83.9314C507.369 -83.5529 509.478 -83.2477 511.524 -82.7105L523.913 -79.8901C528.068 -79.0354 532.108 -77.7534 536.186 -76.6667L542.31 -74.9696L545.366 -74.1149L548.383 -73.1382L560.44 -69.2433C562.46 -68.6206 564.429 -67.8636 566.41 -67.1555L572.356 -64.9822C580.333 -62.1984 588.081 -58.8773 595.919 -55.7761L607.515 -50.758L613.306 -48.2428L619.034 -45.6055C649.719 -31.6377 679.444 -16.0949 709.63 -1.37014L720.983 4.08751C724.818 5.90674 728.539 7.75043 732.374 9.47198L743.817 14.7465C747.653 16.4559 751.552 18.0309 755.413 19.6304C759.274 21.2298 763.084 22.9636 767.061 24.5142L778.9 28.9219C786.724 32.0109 794.83 34.404 802.821 37.0656C804.828 37.7005 806.81 38.4209 808.842 38.9703L814.941 40.6797L827.125 44.1106C829.145 44.7089 831.216 45.1607 833.262 45.6613L839.425 47.1263C843.541 48.1031 847.645 49.1165 851.762 50.0444L864.202 52.4864L870.416 53.7073C871.464 53.9027 872.487 54.1347 873.535 54.3178L876.668 54.8062L889.197 56.8085L895.462 57.8097L901.765 58.5789C969.083 67.1844 1037.42 65.2586 1104.09 52.8771L1204.18 35.5151L1229.27 31.1806L1241.81 29.0928C1245.98 28.3602 1250.2 27.8718 1254.38 27.2492C1262.77 26.0282 1271.2 25.1369 1279.62 24.1235C1288.06 23.3543 1296.49 22.4386 1304.96 21.9258C1372.59 17.0908 1440.7 20.4606 1507.91 28.8119Z"
              fill="#082C36"/>
        <path d="M1508.41 39.8982C1491.43 37.6639 1474.42 35.6371 1457.36 34.0987C1440.29 32.5603 1423.21 31.3271 1406.08 30.7288L1399.68 30.4603L1393.29 30.3137C1389.01 30.2283 1384.72 30.0817 1380.5 30.0451C1371.94 30.0451 1363.37 29.9352 1354.81 30.1794C1346.24 30.4236 1337.69 30.7166 1329.12 31.0585C1324.85 31.2783 1320.58 31.6079 1316.34 31.8765L1309.94 32.3039L1303.55 32.8899C1286.48 34.2696 1269.5 36.5528 1252.61 39.2512L1239.97 41.4489C1235.78 42.2303 1231.6 43.146 1227.4 43.9884L1221.13 45.2094L1214.87 46.6135L1202.38 49.5072C1169.14 57.358 1136.14 66.3198 1102.81 74.0363C1098.64 75.0009 1094.48 75.9654 1090.29 76.8567L1077.7 79.3719C1069.34 81.2033 1060.85 82.3998 1052.4 83.7551L1046.01 84.7563L1039.61 85.5133L1026.83 87.0029C1022.58 87.5768 1018.3 87.8087 1014.04 88.1506L1001.26 89.1273C999.124 89.3349 996.989 89.3471 994.866 89.4326L988.474 89.6646L975.625 90.1163H962.75H956.357C954.222 90.1163 952.074 90.1163 949.965 89.982L937.18 89.4204L930.787 89.1396C928.652 89.0663 926.517 88.8099 924.395 88.6512L911.609 87.5767C909.487 87.3814 907.339 87.2593 905.217 87.0029L898.824 86.2092C864.594 82.2454 830.837 75.1726 798.013 65.0867L791.877 63.2552L785.816 61.1552L773.734 56.9551C769.669 55.6243 765.756 53.9393 761.78 52.3886L749.903 47.6513C747.908 46.9065 746.067 45.942 744.06 45.0995L738.243 42.4622C734.407 40.704 730.469 38.9826 726.621 37.1878C719.027 33.3784 711.279 29.7398 703.838 25.7595C673.678 10.1434 644.349 -6.8401 614.457 -22.8225C599.473 -30.7343 584.425 -38.585 568.967 -45.6178L563.189 -48.3039C561.271 -49.1952 559.353 -49.9888 557.346 -50.8435L545.635 -55.8616L533.757 -60.4647L527.812 -62.7601L521.765 -64.7991C517.725 -66.1543 513.697 -67.5584 509.644 -68.877L497.358 -72.4056C495.299 -72.9795 493.279 -73.6266 491.195 -74.1272L484.969 -75.5802C480.801 -76.5203 476.671 -77.5825 472.491 -78.4249L459.859 -80.6593C457.762 -81.0134 455.665 -81.453 453.543 -81.7338L447.151 -82.5762C442.919 -83.1989 438.648 -83.5042 434.365 -83.9682C430.082 -84.4321 425.838 -84.603 421.58 -84.9327C404.489 -85.9427 387.34 -85.6447 370.299 -84.0414C353.256 -82.4983 336.433 -79.2239 320.117 -74.2737C316.013 -73.126 312.063 -71.551 308.074 -70.0858L305.082 -68.9747L302.18 -67.6805L296.375 -65.0921C294.406 -64.2863 292.604 -63.163 290.724 -62.1984L285.137 -59.2071L279.844 -55.7884L277.185 -54.0912C276.29 -53.5296 275.408 -52.9435 274.628 -52.3208C260.858 -42.5531 247.779 -32.0773 234.764 -21.3817C221.748 -10.6861 209.002 0.217041 195.807 10.6685C182.687 21.2233 168.942 31.048 154.639 40.0936C140.263 49.0448 125.088 56.7668 109.29 63.1697C93.5264 69.6367 77.2184 74.8198 60.5404 78.6637C43.835 82.5432 26.7507 84.7447 9.56605 85.2325C-7.58618 85.7651 -24.7416 84.2723 -41.5106 80.7882C-24.7135 84.2227 -7.53707 85.6662 9.62997 85.086C26.7648 84.5444 43.7934 82.2938 60.4381 78.3707C77.0655 74.4799 93.318 69.2518 109.022 62.7424C124.77 56.2905 139.894 48.5278 154.217 39.5442C168.478 30.4949 182.189 20.6788 195.283 10.1435C208.465 -0.320168 221.237 -11.2234 234.201 -21.9312C247.165 -32.639 260.308 -43.1881 274.091 -52.9557C274.935 -53.5784 275.817 -54.1767 276.648 -54.7261L279.32 -56.4477L284.677 -59.8664L290.302 -62.8822C292.195 -63.8589 293.997 -64.9822 295.979 -65.788L301.809 -68.4009L304.724 -69.7073L307.729 -70.8306C311.73 -72.308 315.706 -73.883 319.823 -75.0429C336.196 -80.0269 353.078 -83.33 370.184 -84.8961C387.275 -86.5215 404.475 -86.8358 421.619 -85.8362C425.889 -85.5187 430.172 -85.3112 434.404 -84.8839C438.636 -84.4565 442.957 -84.1147 447.189 -83.492L453.582 -82.6617C455.704 -82.3809 457.813 -81.9413 459.974 -81.5873L472.631 -79.3651C476.825 -78.5226 480.98 -77.4604 485.161 -76.5203L491.413 -75.0673C493.497 -74.5789 495.53 -73.9197 497.588 -73.358L509.913 -69.8172C513.979 -68.5108 518.019 -67.1066 522.059 -65.7514L528.132 -63.7002L534.102 -61.417L546.031 -56.814L557.78 -51.7958C559.737 -50.9411 561.706 -50.1598 563.636 -49.2563L569.428 -46.5701C584.923 -39.5374 599.984 -31.6988 615.007 -23.787C644.937 -7.82905 674.279 9.11788 704.426 24.6729C711.905 28.6532 719.577 32.3039 727.158 36.1011C730.994 37.8959 734.829 39.6174 738.741 41.3756L744.533 44.0129C746.476 44.8553 748.369 45.8199 750.363 46.5647L762.215 51.302C766.166 52.8527 770.078 54.5376 774.131 55.8684L786.187 60.0685L792.222 62.1685L798.41 63.9878C831.01 74.0612 864.538 81.1543 898.543 85.1715L904.936 85.965C907.058 86.2336 909.193 86.3558 911.328 86.5511L924.113 87.6377C926.248 87.7965 928.371 88.0529 930.506 88.1262L936.898 88.4192L949.684 88.9931C951.819 89.1152 953.954 89.1396 956.076 89.1273H962.469H975.254L988.039 88.7L994.432 88.4681C996.567 88.3704 998.715 88.3704 1000.82 88.1628L1013.61 87.1982C1017.88 86.8686 1022.15 86.6366 1026.39 86.075L1039.18 84.5976L1045.57 83.8406L1051.96 82.8516C1060.4 81.5085 1068.88 80.3242 1077.23 78.505L1089.91 76.0753C1094.09 75.1799 1098.26 74.248 1102.42 73.2793C1135.73 65.5995 1168.72 56.662 1202.01 48.8601L1214.52 45.9786L1220.77 44.5745L1227.06 43.2925C1231.26 42.4623 1235.44 41.5466 1239.65 40.7652L1252.31 38.5796C1269.21 35.8813 1286.21 33.6103 1303.31 32.2672L1309.7 31.7056L1316.09 31.3027C1320.38 31.0463 1324.65 30.7288 1328.88 30.5213C1337.44 30.2038 1346.01 29.7765 1354.58 29.7155C1363.14 29.6544 1371.72 29.6178 1380.29 29.7155C1384.58 29.7155 1388.87 29.923 1393.15 30.0207L1399.54 30.1916L1405.93 30.4725C1423.05 31.1196 1440.15 32.4748 1457.22 34.001C1474.28 35.5272 1491.44 37.6151 1508.41 39.8982Z"
              fill="#082C36"/>
        <path d="M1508.92 50.9725C1474.65 45.8006 1440.11 42.373 1405.46 40.7042C1396.81 40.2036 1388.14 40.1547 1379.47 39.8861H1366.47C1364.29 39.8861 1362.13 39.8861 1359.96 39.8861L1353.46 40.0449C1336.13 40.3013 1318.82 41.4734 1301.57 43.0973L1288.64 44.477C1284.33 44.9653 1280.06 45.698 1275.77 46.1985L1269.38 47.0898C1267.23 47.4073 1265.11 47.8102 1262.98 48.1643L1250.2 50.362L1237.49 52.9749C1235.38 53.4266 1233.25 53.8051 1231.1 54.3301L1224.81 55.8563C1220.61 56.8941 1216.38 57.8342 1212.21 58.9697L1205.96 60.6547L1199.74 62.4373C1166.56 72.0585 1134.26 84.2802 1101.09 94.0601C1092.8 96.502 1084.46 98.7852 1076 100.727L1063.38 103.755C1059.15 104.695 1054.88 105.415 1050.6 106.257C1046.31 107.1 1042.09 107.906 1037.81 108.699L1024.94 110.543L1018.54 111.459C1016.4 111.764 1014.25 112.106 1012.15 112.277L999.2 113.498C964.602 116.624 929.761 116.415 895.206 112.875C860.654 109.304 826.572 102.382 793.487 92.2164L781.06 88.285C779.002 87.6012 776.918 87.0641 774.898 86.2582L768.825 84.0116L756.692 79.5063L753.649 78.383L750.683 77.1621L744.712 74.5736L732.809 69.5188C728.884 67.7607 725.049 65.856 721.162 63.9635L709.54 58.347L698.161 52.3155L692.472 49.2875L686.859 46.1374L675.672 39.8373C668.282 35.5029 660.829 31.2906 653.503 26.8219C638.774 18.0676 624.174 9.11798 609.496 0.302658C580.09 -17.267 550.429 -34.5069 518.965 -48.438C487.702 -62.8037 454.468 -72.8707 420.251 -78.3393C403.119 -80.7995 385.773 -81.6175 368.471 -80.7812C351.16 -80.0013 334.025 -77.1086 317.484 -72.1735C300.932 -67.2363 285.476 -59.4258 271.892 -49.134C258.531 -38.5849 245.72 -27.4131 232.974 -16.1681C207.493 6.27316 182.229 29.1295 154.179 48.7259C140.178 58.5359 125.406 67.3 109.993 74.9399C94.5944 82.616 78.4522 88.8477 61.7933 93.5473L55.5286 95.2445C53.4446 95.8183 51.3223 96.2212 49.2128 96.7218C47.1032 97.2224 45.0064 97.723 42.8202 98.1015L36.4148 99.2736L33.2185 99.8353L29.9967 100.25L23.6041 101.068C21.4562 101.325 19.2827 101.435 17.122 101.618L13.8874 101.862C12.8006 101.96 11.7267 102.033 10.64 102.045C-6.72115 102.812 -24.1055 101.121 -40.9481 97.027C-24.1028 101.076 -6.72274 102.722 10.6272 101.911C11.7139 101.911 12.7879 101.825 13.8746 101.728L17.1092 101.471C19.2699 101.276 21.4306 101.166 23.5785 100.91L29.9711 100.067L33.193 99.6399L36.3892 99.0661L42.7818 97.9184C44.9042 97.5399 47.0009 96.9782 49.1744 96.5265C51.3479 96.0747 53.4063 95.6108 55.4775 95.0369L61.7294 93.3153C78.3483 88.572 94.4474 82.3036 109.802 74.598C125.167 66.9234 139.888 58.1267 153.834 48.2863C181.808 28.751 207.02 5.83361 232.488 -16.632C245.273 -27.8771 258.058 -39.0611 271.406 -49.5979C285.059 -59.959 300.597 -67.8235 317.241 -72.7962C333.85 -77.774 351.058 -80.6996 368.445 -81.5016C385.815 -82.3439 403.23 -81.5258 420.43 -79.0597C454.747 -73.6116 488.085 -63.5529 519.451 -49.1829C550.991 -35.2517 580.743 -18.0117 610.225 -0.466553C624.915 8.33656 639.516 17.274 654.244 26.0038C661.583 30.4359 669.024 34.6727 676.427 38.9826L687.639 45.2706L693.239 48.4085L698.916 51.4242L710.282 57.4557L721.699 62.889C725.534 64.7327 729.37 66.6862 733.308 68.4322L745.172 73.487L751.105 76.0754L754.071 77.2963L757.101 78.4196L769.208 82.925L775.269 85.1716C777.276 85.953 779.36 86.5146 781.405 87.1983L793.718 91.1421C826.717 101.335 860.718 108.289 895.193 111.898C929.673 115.463 964.44 115.708 998.97 112.631L1011.91 111.41C1014.07 111.251 1016.2 110.909 1018.3 110.604L1024.69 109.701L1037.56 107.869C1041.81 107.112 1046.06 106.27 1050.34 105.427C1054.62 104.585 1058.86 103.864 1063.13 102.985L1075.73 99.9574C1084.16 98.0404 1092.51 95.7817 1100.78 93.3398C1133.93 83.5721 1166.24 71.3625 1199.47 61.8146L1205.71 60.032L1211.97 58.347C1216.14 57.2238 1220.37 56.2836 1224.58 55.2458L1230.88 53.7196C1232.99 53.1946 1235.12 52.8284 1237.27 52.3766L1250.06 49.7637L1262.84 47.5782C1264.98 47.2241 1267.11 46.8334 1269.24 46.5159L1275.63 45.6247C1279.94 45.063 1284.22 44.4037 1288.53 43.9153L1301.47 42.5478C1318.73 40.9728 1336.06 39.8617 1353.41 39.6542L1359.92 39.5199C1362.08 39.5199 1364.25 39.5199 1366.43 39.5199H1379.43C1388.1 39.8007 1396.78 39.874 1405.44 40.399C1440.1 42.1681 1474.65 45.6975 1508.92 50.9725Z"
              fill="#082C36"/>
        <path d="M-41.0376 103.901C-36.8569 104.914 -32.6122 105.586 -28.3931 106.343C-27.3447 106.563 -26.2707 106.672 -25.1968 106.795L-22.0005 107.185L-18.7914 107.576L-17.1933 107.771L-15.5824 107.869C-11.2866 108.113 -7.00353 108.528 -2.69493 108.467H3.76157L10.1541 108.211C27.3737 107.432 44.451 104.844 61.0774 100.494C77.7215 96.2302 93.8739 90.3767 109.29 83.0225L115.044 80.2509L120.682 77.2352C124.517 75.2938 128.072 73.0472 131.766 70.9472C135.461 68.8471 139.016 66.5273 142.647 64.3174L153.348 57.4189C181.629 38.665 208.171 17.6523 234.406 -3.62908L254.018 -19.6481L263.85 -27.6453C267.161 -30.2826 270.37 -33.0053 273.784 -35.5449C280.612 -40.6176 288.009 -44.9501 295.838 -48.4627C303.639 -52.008 311.739 -54.9162 320.053 -57.1559C336.682 -61.6077 353.798 -64.1933 371.053 -64.8602C388.297 -65.6331 405.579 -64.8441 422.667 -62.5037C426.937 -61.9055 431.195 -61.2828 435.452 -60.4159L438.636 -59.8054L441.768 -59.0729L448.058 -57.6199C456.484 -55.8617 464.679 -53.3465 472.977 -51.0267C489.386 -45.9786 505.505 -40.1057 521.266 -33.4327L527.186 -30.9908C529.167 -30.1849 531.098 -29.257 533.054 -28.3901L544.74 -23.1278C548.575 -21.3208 552.411 -19.4649 556.246 -17.5968C560.082 -15.7287 563.917 -13.934 567.753 -11.9316L579.157 -6.14426L590.472 -0.185966C598.041 3.74553 605.482 7.89678 612.974 11.9382C627.894 20.1674 642.738 28.5067 657.594 36.8092L679.904 49.2141C687.409 53.2433 694.85 57.3946 702.419 61.2894C706.254 63.243 709.937 65.2941 713.759 67.1866L725.266 72.7054C732.86 76.5636 740.864 79.6039 748.727 82.9004L754.646 85.3424L760.694 87.4912L772.776 91.789C776.777 93.303 780.92 94.4141 785.011 95.6839L797.31 99.3467C830.343 108.626 864.228 114.869 898.505 117.991C932.766 121.22 967.265 121.428 1001.57 118.614L1014.35 117.393L1017.56 117.087L1020.76 116.66L1027.15 115.781L1039.93 114.047C1044.17 113.363 1048.39 112.509 1052.6 111.752C1056.82 110.995 1061.07 110.262 1065.26 109.31L1077.78 106.343C1086.15 104.475 1094.4 102.143 1102.66 99.8107C1135.64 90.3971 1168.19 79.5916 1201.26 70.3489C1217.78 65.6849 1234.54 61.8137 1251.48 58.7498L1264.26 56.6742L1267.45 56.1614L1270.64 55.7341L1277.03 54.9038C1285.56 53.6828 1294.14 52.9502 1302.71 52.0833C1306.99 51.6804 1311.3 51.4607 1315.58 51.131C1319.86 50.8014 1324.17 50.5083 1328.48 50.3618L1341.38 49.8001L1354.3 49.5316L1360.69 49.3973H1367.16H1380.07L1392.98 49.7269L1399.44 49.9101L1405.83 50.2031C1423.05 50.8746 1440.21 52.2665 1457.36 53.866C1474.5 55.4654 1491.56 57.7364 1508.57 60.2516C1491.54 57.8096 1474.48 55.6486 1457.33 54.0247C1440.19 52.4008 1423.03 51.131 1405.82 50.5205L1399.43 50.2398L1392.97 50.081L1380.07 49.7879H1360.7L1354.31 49.9345L1341.41 50.2398L1328.51 50.8502C1324.21 51.009 1319.92 51.3264 1315.63 51.656C1311.35 51.9857 1307.04 52.2299 1302.76 52.645C1294.2 53.5241 1285.64 54.2567 1277.19 55.4899L1270.8 56.3323L1267.6 56.7474L1264.42 57.2724L1251.63 59.3603C1234.73 62.4972 1218.01 66.4459 1201.53 71.1914C1168.49 80.4585 1135.96 91.3006 1102.96 100.751C1094.71 103.095 1086.45 105.439 1078.05 107.32L1065.5 110.262C1061.31 111.19 1057.05 111.874 1052.83 112.704C1048.62 113.534 1044.38 114.316 1040.14 115.012L1027.35 116.77L1020.96 117.649L1017.75 118.088L1014.54 118.382L1001.67 119.602C967.307 122.456 932.743 122.28 898.415 119.077C864.065 115.981 830.102 109.759 796.991 100.494L784.653 96.8316C780.549 95.6106 776.394 94.3896 772.392 92.9367L760.259 88.6389L754.199 86.4901L748.266 84.0481C740.365 80.7393 732.336 77.6991 724.716 73.8286L713.146 68.31C709.31 66.4175 705.577 64.3784 701.792 62.4127C694.211 58.5056 686.783 54.3422 679.278 50.313L656.955 37.8592C642.099 29.5322 627.268 21.1809 612.36 12.9516C604.881 8.89799 597.453 4.74671 589.897 0.803009L578.595 -5.15528L567.203 -10.9548C563.368 -12.9206 559.532 -14.7642 555.696 -16.6078C551.861 -18.4515 548.025 -20.344 544.19 -22.151L532.53 -27.4256C530.574 -28.2803 528.694 -29.2082 526.674 -30.0262L520.767 -32.4682C505.045 -39.1389 488.964 -45.0118 472.593 -50.0622C464.347 -52.382 456.164 -54.946 447.751 -56.6675L441.487 -58.1327L438.354 -58.8531L435.196 -59.4636C430.99 -60.2816 426.758 -60.9653 422.501 -61.5636C405.479 -63.9266 388.262 -64.7442 371.079 -64.0055C353.881 -63.3563 336.82 -60.7911 320.245 -56.3623C311.976 -54.1417 303.919 -51.2582 296.158 -47.7423C288.386 -44.2546 281.037 -39.9638 274.244 -34.9467C270.869 -32.4315 267.634 -29.6965 264.336 -27.0715L254.491 -19.0864L234.828 -3.09185C208.567 18.1773 181.987 39.19 153.642 57.9562L142.915 64.8302C139.271 67.0279 135.679 69.3111 131.997 71.4356C128.314 73.5601 124.671 75.77 120.861 77.6991L115.21 80.7027L109.469 83.401C94.0128 90.7108 77.8265 96.5192 61.1541 100.739C44.5241 105.091 27.4422 107.679 10.2181 108.455L3.82549 108.699L-2.63101 108.626C-6.93961 108.626 -11.2354 108.248 -15.5312 107.991L-17.1422 107.881L-18.7403 107.686L-21.9366 107.295L-25.1457 106.892C-26.2068 106.77 -27.2808 106.648 -28.3292 106.428C-32.625 105.61 -36.8696 104.926 -41.0376 103.901Z"
              fill="#082C36"/>
        <path d="M-41.0888 110.824C-24.4681 114.694 -7.20816 115.573 9.84723 114.829C26.9328 114.012 43.894 111.603 60.4892 107.637L66.7028 106.16L72.8652 104.45C76.982 103.376 81.0094 102.008 85.075 100.787C87.1079 100.177 89.0896 99.4078 91.0841 98.6875L97.0803 96.5141L102.961 94.0722L105.902 92.8512C106.874 92.4361 107.82 91.9721 108.791 91.5326L114.545 88.8465C116.45 87.9186 118.291 86.893 120.17 85.9162C123.929 83.9993 127.547 81.8016 131.217 79.7259C134.886 77.6503 138.491 75.4403 142.122 73.2915L152.913 66.6739C181.552 48.8357 209.244 29.6423 236.208 9.56969C242.942 4.53934 249.628 -0.547993 256.268 -5.6923C259.567 -8.28073 262.904 -10.8448 266.177 -13.4699C269.45 -16.0949 272.71 -18.72 276.111 -21.2474C283.051 -26.0808 290.539 -30.1519 298.434 -33.3837C306.309 -36.5827 314.43 -39.1991 322.725 -41.21C339.366 -45.1659 356.395 -47.4494 373.534 -48.023C390.656 -48.7306 407.811 -47.9624 424.789 -45.7276C429.034 -45.1415 433.266 -44.5066 437.459 -43.6642C439.569 -43.2857 441.64 -42.7851 443.724 -42.3089L449.976 -40.8803L456.215 -39.4518C458.299 -38.9635 460.332 -38.3408 462.403 -37.7914L474.741 -34.3971L486.925 -30.5511C488.958 -29.8918 490.991 -29.3301 493.011 -28.5975L499.033 -26.473C503.034 -25.0445 507.062 -23.6648 511.063 -22.1997L522.966 -17.6089C524.935 -16.8275 526.943 -16.0949 528.899 -15.2891L534.793 -12.8472L546.555 -7.96334L558.202 -2.8353L564.032 -0.25909L569.798 2.40259L581.305 7.73825L592.812 13.2569C600.483 16.9198 608.013 20.7414 615.62 24.4775C645.896 39.7029 675.711 55.6852 705.781 71.2525C735.558 87.3081 767.674 99.0415 800.673 107.478C833.724 115.835 867.47 121.444 901.535 124.242C935.585 127.176 969.833 127.376 1003.92 124.84C1020.95 123.561 1037.91 121.446 1054.71 118.504C1058.91 117.698 1063.1 116.929 1067.27 116.062L1073.52 114.694L1076.64 114.01L1079.73 113.241C1088.02 111.239 1096.23 108.956 1104.45 106.721C1137.32 97.7106 1170.04 88.175 1202.96 79.2986C1219.38 74.7048 1236.06 70.9833 1252.92 68.1513L1265.59 66.1855C1269.81 65.5751 1274.07 65.1233 1278.38 64.5861L1284.77 63.8047L1291.16 63.1942L1303.95 61.9732L1316.73 61.143L1323.12 60.7278L1329.52 60.4714L1342.3 59.9586L1355.09 59.7266L1361.48 59.6168H1367.87H1380.66L1393.44 59.922L1399.84 60.0685L1406.23 60.3493L1419.01 60.8988L1431.8 61.7046L1438.19 62.1075L1444.58 62.6325L1457.37 63.6947C1474.42 65.3227 1491.38 67.3576 1508.25 69.7995C1491.35 67.3576 1474.38 65.3634 1457.34 63.8169L1444.56 62.7912L1438.17 62.2907L1431.77 61.9L1418.99 61.143L1406.2 60.6301L1399.81 60.3738L1393.42 60.2395L1380.63 59.9708H1361.45L1355.06 60.0929L1342.28 60.3615L1329.49 60.911L1323.1 61.1918L1316.71 61.6191L1303.92 62.486L1291.14 63.707L1284.74 64.3174L1278.35 65.0989C1274.12 65.6483 1269.87 66.1001 1265.64 66.7105L1253 68.6885C1236.17 71.5303 1219.53 75.264 1203.14 79.8724C1170.23 88.7732 1137.54 98.3456 1104.69 107.393C1096.46 109.639 1088.26 111.935 1079.95 113.937L1076.84 114.719L1073.73 115.402L1067.47 116.782C1063.29 117.661 1059.09 118.43 1054.89 119.224C1038.05 122.186 1021.06 124.321 1003.99 125.622C969.853 128.194 935.546 128.031 901.432 125.133C867.324 122.356 833.53 116.767 800.43 108.431C767.367 100.018 735.085 88.2727 705.231 72.2049C675.174 56.601 645.371 40.582 615.135 25.3445C607.54 21.5961 600.01 17.7256 592.351 14.0994L580.909 8.58064L569.402 3.23291L563.636 0.559006L557.819 -2.01728L546.184 -7.15746L534.447 -12.0413L528.566 -14.4832C526.61 -15.3013 524.616 -16.0339 522.634 -16.8153L510.744 -21.284C506.768 -22.7491 502.74 -24.141 498.751 -25.5695L492.717 -27.7062C490.697 -28.39 488.664 -29.0004 486.644 -29.6597L474.485 -33.518L462.16 -36.9001C460.102 -37.4495 458.069 -38.121 455.998 -38.5606L449.771 -39.9891L443.545 -41.4298C441.474 -41.8938 439.403 -42.4066 437.306 -42.7729C433.125 -43.6031 428.919 -44.2502 424.7 -44.8485C407.761 -47.0925 390.645 -47.873 373.559 -47.1805C356.483 -46.6313 339.514 -44.3765 322.93 -40.453C314.659 -38.4559 306.56 -35.8599 298.702 -32.6878C290.864 -29.4836 283.428 -25.4495 276.533 -20.6613C273.17 -18.2193 269.897 -15.5455 266.611 -12.9204C263.326 -10.2954 260.001 -7.74358 256.703 -5.15515C250.055 -0.0189819 243.359 5.06434 236.617 10.0947C209.615 30.155 181.884 49.3363 153.194 67.1501L142.378 73.7311C138.734 75.8677 135.116 78.041 131.447 80.1411C127.777 82.2411 124.146 84.4022 120.349 86.2459C118.47 87.2227 116.616 88.2482 114.711 89.1639L108.983 91.9477C108.024 92.3873 107.066 92.8513 106.094 93.2664L103.14 94.4874L97.2337 96.9293L91.2375 99.1025C89.2302 99.8107 87.2485 100.58 85.2029 101.178C81.1372 102.399 77.0971 103.815 72.9675 104.841L66.7923 106.538L60.5659 108.003C43.9453 111.927 26.9622 114.286 9.86001 115.048C-7.20816 115.683 -24.4553 114.743 -41.0888 110.824Z"
              fill="#082C36"/>
        <path d="M-41.1399 117.747C-24.5192 121.41 -7.42546 122.057 9.51487 121.41C26.4861 120.616 43.3532 118.418 59.9267 114.841L66.1275 113.498C68.1987 113.022 70.2443 112.472 72.2899 111.959C74.3356 111.447 76.4068 110.958 78.4268 110.348L84.5126 108.565L87.5554 107.662L90.5599 106.648L96.5562 104.622C98.5506 103.926 100.494 103.108 102.463 102.363C104.432 101.618 106.414 100.885 108.318 99.9208L114.072 97.3323C116.002 96.5021 117.818 95.4399 119.697 94.4998C123.443 92.6195 127.062 90.4584 130.718 88.395C138.014 84.26 145.293 80.0802 152.555 75.8557C181.565 58.982 210.293 41.62 237.934 22.7928C241.399 20.4485 244.8 18.0311 248.239 15.6502C251.678 13.2693 255.028 10.7663 258.391 8.32442C261.753 5.8825 265.116 3.36731 268.363 0.754452C271.61 -1.8584 274.871 -4.44686 278.348 -6.82773C285.361 -11.4795 292.949 -15.2852 300.94 -18.1582C308.888 -21.0897 317.049 -23.4647 325.359 -25.2642C341.994 -28.7451 358.929 -30.7559 375.95 -31.2713C392.963 -31.9197 410.003 -31.1844 426.886 -29.0736C460.549 -23.9089 492.947 -13.4209 524.731 -2.01715C588.209 21.3398 649.092 50.4841 709.041 81.0081C712.787 82.9128 716.521 84.8541 720.305 86.6734C722.197 87.5891 724.064 88.5414 725.969 89.4205L731.735 91.9846L734.625 93.2056L737.54 94.4265L743.434 96.8318C747.359 98.3702 751.335 99.7743 755.285 101.239C771.238 106.766 787.5 111.441 803.997 115.244C837.035 122.815 870.651 127.874 904.526 130.372C938.378 133.008 972.39 133.192 1006.27 130.921C1023.16 129.759 1039.99 127.779 1056.67 124.987C1060.84 124.242 1065.01 123.473 1069.16 122.655L1075.37 121.312L1078.47 120.64L1081.55 119.883C1089.77 117.893 1097.95 115.683 1106.16 113.583L1204.53 88.1019L1216.83 84.9152L1229.23 82.0215L1232.32 81.3133L1235.46 80.7273L1241.71 79.5063L1247.97 78.2854C1250.06 77.9191 1252.17 77.6383 1254.26 77.3209C1258.47 76.7104 1262.66 76.0999 1266.87 75.4772L1279.53 74.0243C1283.75 73.487 1287.98 73.1574 1292.21 72.8033C1296.44 72.4492 1300.67 72.034 1304.91 71.7654C1313.4 71.2893 1321.87 70.6422 1330.36 70.4102L1343.15 69.9707L1355.93 69.7631L1362.32 69.6654H1368.72H1381.5L1394.29 69.9462C1398.53 70.0317 1402.79 70.1294 1407.07 70.3247L1419.86 70.8376L1432.64 71.5701C1441.13 71.9852 1449.58 72.791 1458.06 73.3771C1474.97 74.9033 1491.86 76.7592 1508.65 79.2499C1491.85 76.808 1474.96 75.001 1458.05 73.5358C1449.57 72.9498 1441.12 72.1928 1432.63 71.7899L1419.84 71.1061L1407.06 70.63C1402.83 70.4468 1398.58 70.3492 1394.27 70.2881L1381.49 70.0439H1362.23L1355.84 70.1538L1343.06 70.398L1330.34 70.8864C1321.85 71.1428 1313.38 71.8021 1304.91 72.3027C1300.67 72.5957 1296.46 73.023 1292.22 73.3771C1287.99 73.7312 1283.76 74.0731 1279.55 74.5981L1266.91 76.0632C1262.71 76.6493 1258.52 77.2842 1254.33 77.9191C1252.23 78.2488 1250.13 78.5174 1248.04 78.8837L1241.8 80.1046L1235.55 81.3256L1232.43 81.9117L1229.33 82.632L1216.98 85.5257L1204.68 88.7246L1106.34 114.365C1098.13 116.477 1089.97 118.687 1081.72 120.689L1078.63 121.459L1075.53 122.142L1069.3 123.485C1065.15 124.316 1060.97 125.085 1056.78 125.842C1040.03 128.657 1023.14 130.658 1006.18 131.837C972.248 134.147 938.18 133.996 904.271 131.385C870.377 128.922 836.741 123.9 803.677 116.367C787.132 112.565 770.819 107.894 754.812 102.375C750.849 100.91 746.86 99.5056 742.922 97.955L737.041 95.6108L734.1 94.3898L731.211 93.1689L725.419 90.6049C723.501 89.7258 721.584 88.7735 719.717 87.8577C715.882 86.0263 712.174 84.0972 708.428 82.1803C648.529 51.6563 587.723 22.3532 524.322 -1.00373C516.369 -3.84857 508.443 -6.75447 500.388 -9.34291C492.333 -11.9313 484.291 -14.4465 476.198 -16.9006C472.146 -18.1216 468.029 -19.1106 463.95 -20.2338L457.826 -21.8699C455.78 -22.3949 453.697 -22.8223 451.638 -23.2985C447.508 -24.2142 443.392 -25.2153 439.249 -26.07C435.107 -26.9247 430.913 -27.523 426.733 -28.1091C409.907 -30.23 392.922 -30.9815 375.963 -30.3556C358.995 -29.8559 342.111 -27.8655 325.525 -24.4095C317.261 -22.6438 309.142 -20.3056 301.234 -17.4134C293.303 -14.5639 285.771 -10.7912 278.808 -6.18059C275.382 -3.84856 272.147 -1.21129 268.849 1.36493C265.55 3.94116 262.201 6.37087 258.876 8.92268C255.552 11.4745 252.1 13.8065 248.648 16.2484C245.196 18.6904 241.795 21.0468 238.331 23.391C210.612 42.1938 181.897 59.5925 152.849 76.4174C145.579 80.6175 138.283 84.7768 130.961 88.8955C127.292 90.9345 123.686 93.0712 119.902 95.0003C118.022 95.9405 116.194 97.0027 114.251 97.833L108.472 100.409C106.567 101.313 104.56 101.996 102.591 102.778C100.622 103.559 98.6657 104.328 96.6712 105.024L90.6494 107.039L87.6449 108.04L84.6021 108.931L78.6058 110.653C76.573 111.239 74.5018 111.703 72.4434 112.24C70.385 112.777 68.3393 113.29 66.2809 113.766L59.9906 115.146C43.406 118.651 26.5349 120.78 9.56601 121.507C-7.43824 122.154 -24.5831 121.52 -41.1399 117.747Z"
              fill="#082C36"/>
        <path d="M-41.2039 124.67C-37.0615 125.488 -32.8935 126.098 -28.7256 126.782L-22.3969 127.356C-21.3485 127.453 -20.3001 127.575 -19.2518 127.649L-16.081 127.807L-9.76518 128.113H-3.43653C0.78257 128.198 5.00167 127.954 9.22077 127.844C26.0883 127.091 42.872 125.119 59.428 121.947C63.5576 121.129 67.7 120.347 71.7913 119.334L77.9282 117.905L84.0267 116.257C88.1051 115.232 92.0813 113.876 96.0959 112.594C98.1031 112.008 100.046 111.215 102.028 110.519C104.01 109.823 105.979 109.127 107.909 108.297C115.633 105.071 123.113 101.338 130.296 97.1247C137.609 93.0548 144.948 89.0623 152.312 85.1471C181.718 69.2746 211.252 53.6219 239.571 36.0889C243.125 33.9156 246.59 31.6202 250.106 29.3981C253.622 27.1759 257.023 24.7828 260.436 22.4141C263.85 20.0455 267.238 17.6524 270.473 15.0884L275.408 11.3034C277.044 9.99843 278.751 8.77581 280.522 7.64053C287.647 3.23743 295.322 -0.294302 303.369 -2.87193C311.369 -5.51843 319.555 -7.62373 327.865 -9.17213C344.466 -12.2663 361.305 -14.0509 378.213 -14.5077C395.12 -15.1111 412.051 -14.417 428.842 -12.4321C433.036 -11.8704 437.216 -11.2112 441.359 -10.4175L453.722 -7.69474C457.852 -6.82785 461.905 -5.70461 465.996 -4.679C470.087 -3.65339 474.165 -2.63997 478.206 -1.44342L490.351 1.99969C494.379 3.22066 498.393 4.44161 502.421 5.66257C510.488 8.1045 518.428 10.8272 526.418 13.4156C558.266 24.1967 589.628 36.2354 620.619 49.0555C636.077 55.5632 651.508 62.132 666.748 69.0915C674.419 72.498 681.95 76.112 689.544 79.6283C697.138 83.1447 704.643 86.8686 712.097 90.617C719.551 94.3653 727.017 98.077 734.752 101.313C736.657 102.155 738.588 102.851 740.582 103.632C742.577 104.414 744.418 105.195 746.438 105.891L752.37 107.979L755.324 109.029L758.328 109.981C774.314 115.112 790.585 119.396 807.065 122.814C840.06 129.606 873.524 134.119 907.199 136.318C940.861 138.696 974.654 138.872 1008.34 136.843C1025.18 135.756 1041.97 134.034 1058.6 131.348C1062.76 130.665 1066.9 129.895 1071.03 129.114L1077.2 127.82L1080.28 127.16L1083.35 126.403L1089.46 124.902L1095.57 123.314L1107.81 120.396C1140.51 112.362 1173.41 105.037 1206.09 96.9538L1218.33 93.877L1230.66 91.0321C1232.7 90.5071 1234.81 90.2385 1236.86 89.8112L1243.1 88.6879C1245.17 88.3338 1247.25 87.9065 1249.33 87.6135L1255.61 86.7343C1272.3 84.2924 1289.14 82.8517 1305.99 81.704C1314.42 81.24 1322.84 80.715 1331.29 80.483C1335.51 80.3487 1339.73 80.1533 1343.95 80.0923L1356.62 79.897C1360.84 79.8115 1365.06 79.8115 1369.28 79.897H1381.95L1394.61 80.1412C1398.83 80.2266 1403.04 80.2999 1407.26 80.483L1419.92 80.9592C1424.14 81.1179 1428.36 81.3988 1432.57 81.6063C1441 81.9971 1449.42 82.6808 1457.84 83.2668C1474.65 84.6709 1491.45 86.3802 1508.14 88.8588C1491.44 86.4169 1474.64 84.7808 1457.83 83.4256C1449.4 82.8639 1440.99 82.2045 1432.55 81.8383C1428.33 81.6307 1424.13 81.3621 1419.91 81.2278L1407.25 80.7883C1403.04 80.6173 1398.83 80.5563 1394.61 80.483L1381.94 80.2755H1369.28C1365.06 80.2755 1360.84 80.2755 1356.62 80.3732L1343.96 80.5929C1339.75 80.6784 1335.53 80.8859 1331.31 81.0202C1322.88 81.2644 1314.46 81.8139 1306.03 82.2412C1289.21 83.4622 1272.38 84.8297 1255.71 87.3204L1249.44 88.2117C1247.36 88.5047 1245.3 88.9321 1243.23 89.2862L1237.02 90.4094C1234.95 90.8246 1232.85 91.0932 1230.82 91.6304L1218.53 94.4753L1206.26 97.6497C1173.56 105.769 1140.68 113.132 1108 121.202L1095.75 124.279L1089.66 125.866L1083.52 127.356L1080.44 128.113L1077.36 128.772L1071.16 130.091C1067.01 130.872 1062.87 131.654 1058.7 132.337C1042.03 134.994 1025.23 136.848 1008.37 137.893C974.631 139.964 940.787 139.826 907.071 137.477C873.339 135.308 839.815 130.82 806.758 124.047C790.227 120.636 773.905 116.357 757.868 111.227L754.863 110.274L751.885 109.224L745.991 107.173C743.996 106.477 742.066 105.659 740.097 104.914C738.128 104.17 736.159 103.425 734.241 102.582C726.493 99.3591 718.899 95.6474 711.483 91.8746C704.068 88.1018 696.499 84.4756 688.982 80.8127C681.464 77.1498 673.857 73.6701 666.211 70.2636C650.997 63.2919 635.527 56.7109 620.185 50.191C589.232 37.3465 557.908 25.2834 526.099 14.4779C518.108 11.8894 510.181 9.1301 502.127 6.72481C498.112 5.50385 494.11 4.22184 490.083 3.06192L477.95 -0.393415C473.923 -1.61438 469.831 -2.5789 465.766 -3.64114C461.7 -4.70337 457.634 -5.79007 453.517 -6.65695L441.116 -9.39189C436.999 -10.2221 432.831 -10.8327 428.663 -11.4065C411.928 -13.3957 395.054 -14.1061 378.2 -13.531C361.337 -13.0892 344.541 -11.325 327.98 -8.25641C319.72 -6.73909 311.581 -4.67058 303.624 -2.06613C295.637 0.472938 288.016 3.96395 280.944 8.32426C279.179 9.41092 277.53 10.6563 275.829 11.8894L270.894 15.6866C267.647 18.2628 264.182 20.5705 260.82 23.0124C257.457 25.4543 253.929 27.6765 250.464 29.9841C246.999 32.2917 243.47 34.5016 239.903 36.6749C211.52 54.1957 181.961 69.8484 152.542 85.6599C145.178 89.6076 137.831 93.5758 130.501 97.5642C123.286 101.792 115.772 105.533 108.012 108.761C106.081 109.579 104.074 110.213 102.105 110.958C100.136 111.703 98.1798 112.448 96.1598 113.022C92.1325 114.243 88.1435 115.598 84.0522 116.611L77.9537 118.247L71.7913 119.664C67.7 120.665 63.5576 121.434 59.4153 122.24C42.8453 125.393 26.0484 127.34 9.16962 128.064C4.93774 128.162 0.731434 128.406 -3.50045 128.296H-9.8291L-16.2217 127.978L-19.3796 127.82C-20.428 127.746 -21.4764 127.612 -22.5248 127.514L-28.7895 126.818C-32.8935 126.135 -37.0615 125.5 -41.2039 124.67Z"
              fill="#082C36"/>
        <path d="M-41.2549 131.592C-37.1253 132.325 -32.983 132.96 -28.8278 133.558C-24.6598 133.912 -20.4919 134.413 -16.2855 134.511C-14.1888 134.584 -12.092 134.718 -9.99525 134.743H-3.70496H-0.559814L2.58533 134.657L8.87562 134.45C25.6414 133.709 42.3372 131.906 58.8528 129.053C75.4085 126.36 91.6711 122.224 107.436 116.697L113.215 114.316C114.161 113.901 115.159 113.583 116.079 113.095L118.853 111.691C122.587 109.896 126.192 107.82 129.849 105.842C137.187 101.952 144.586 98.1666 152.044 94.4875C181.833 79.7016 212.134 65.7094 241.016 49.495C244.659 47.4926 248.188 45.3316 251.768 43.2559C255.348 41.1803 258.812 38.9215 262.277 36.6749C265.742 34.4284 269.181 32.1207 272.403 29.5689L277.338 25.906C278.182 25.2956 279 24.6851 279.895 24.0746L282.542 22.4141C289.796 18.3015 297.55 15.0539 305.632 12.7441C313.681 10.4137 321.87 8.54628 330.154 7.1521C346.725 4.41305 363.484 2.83381 380.297 2.42699C397.102 1.86057 413.928 2.50546 430.632 4.35613C434.8 4.89335 438.968 5.50381 443.085 6.32185L455.371 9.02021C459.475 9.8993 463.516 10.9859 467.594 11.9505L473.692 13.4523L479.753 15.064C495.964 19.2641 511.997 24.0747 527.991 28.9341C559.928 38.8646 591.537 49.6904 622.818 61.4116C638.416 67.3577 653.989 73.3526 669.344 79.836C677.015 82.986 684.686 86.4169 692.357 89.7257C699.913 93.2299 707.52 96.6363 714.948 100.409C718.681 102.265 722.402 104.072 726.148 105.855C727.989 106.795 729.984 107.564 731.825 108.382C733.666 109.2 735.66 110.043 737.578 110.824C741.49 112.265 745.339 113.852 749.315 115.109L755.234 117.1C757.216 117.735 759.223 118.321 761.218 118.919C777.22 123.619 793.477 127.491 809.916 130.518C842.85 136.588 876.161 140.613 909.641 142.569C943.125 144.709 976.715 144.885 1010.22 143.094C1026.97 142.117 1043.68 140.554 1060.24 138.039C1064.38 137.429 1068.48 136.635 1072.61 135.927L1078.75 134.706L1081.82 134.071L1084.87 133.326C1088.93 132.362 1092.98 131.324 1097.05 130.286C1101.11 129.248 1105.19 128.308 1109.27 127.38C1141.92 119.896 1174.83 113.522 1207.43 105.879L1219.62 102.9L1231.89 100.128C1240.15 98.6754 1248.41 97.1491 1256.74 96.1846C1265.05 94.9636 1273.37 94.3043 1281.77 93.4252C1285.95 93.059 1290.14 92.8025 1294.32 92.4729C1298.5 92.1432 1302.69 91.838 1306.89 91.6671L1319.47 91.0321C1323.66 90.8124 1327.86 90.7514 1332.05 90.6048C1336.24 90.4583 1340.44 90.2996 1344.64 90.2629L1357.22 90.092C1361.43 90.0187 1365.62 90.0309 1369.82 90.092H1382.41C1390.8 90.2507 1399.2 90.3362 1407.58 90.617C1441.13 91.7036 1474.71 93.6572 1507.92 98.4189C1474.68 93.7549 1441.12 91.899 1407.57 90.9101C1399.18 90.6659 1390.8 90.6048 1382.41 90.4705H1369.82C1365.62 90.4705 1361.43 90.4705 1357.24 90.5559L1344.64 90.7513C1340.45 90.7513 1336.27 91.02 1332.07 91.1298C1327.88 91.2397 1323.69 91.374 1319.49 91.606L1306.93 92.2775C1302.73 92.4607 1298.55 92.7903 1294.37 93.1078C1290.19 93.4252 1286.01 93.706 1281.83 94.0723C1273.49 94.9514 1265.13 95.623 1256.85 96.8439C1248.51 97.8207 1240.23 99.2858 1232.03 100.8L1219.81 103.584L1207.61 106.599C1175 114.267 1142.1 120.677 1109.47 128.198C1105.39 129.138 1101.33 130.115 1097.26 131.104C1093.2 132.093 1089.17 133.192 1085.09 134.169L1082.04 134.913L1078.95 135.561L1072.79 136.782C1068.66 137.502 1064.53 138.308 1060.38 138.918C1043.76 141.458 1027.05 143.033 1010.29 144.034C976.738 145.862 943.106 145.723 909.577 143.619C876.028 141.691 842.644 137.694 809.635 131.654C793.131 128.623 776.81 124.743 760.745 120.03C758.737 119.432 756.73 118.809 754.736 118.211L748.778 116.221C744.789 115 740.915 113.364 736.99 111.935C735.034 111.19 733.154 110.323 731.198 109.493C729.242 108.663 727.363 107.894 725.47 106.953C721.635 105.159 717.94 103.291 714.245 101.496C706.842 97.7352 699.248 94.3165 691.718 90.8124C684.047 87.4914 676.503 84.0605 668.781 80.9104C653.439 74.4271 637.892 68.4078 622.32 62.4495C591.09 50.7364 559.515 39.8861 527.595 29.8986C511.613 25.0148 495.632 20.2164 479.42 15.9918L473.36 14.3802L467.274 12.854C463.209 11.8772 459.169 10.7906 455.077 9.91148L442.816 7.21313C438.738 6.39509 434.596 5.7724 430.453 5.23518C413.796 3.38603 397.018 2.72489 380.259 3.25723C363.49 3.64907 346.774 5.2079 330.243 7.92131C321.993 9.29904 313.838 11.1542 305.823 13.4767C297.798 15.7475 290.098 18.9587 282.9 23.0368L280.343 24.6729C279.486 25.2346 278.681 25.8939 277.85 26.4677L272.902 30.1306C269.654 32.7068 266.138 34.9046 262.674 37.261C259.209 39.6175 255.667 41.6931 252.126 43.8542C248.584 46.0153 244.992 48.091 241.348 50.0811C212.351 66.3077 182.166 80.3243 152.299 95.0491C144.833 98.712 137.426 102.473 130.079 106.331C126.422 108.297 122.817 110.348 119.058 112.155L116.258 113.547C115.338 114.035 114.34 114.365 113.381 114.768L107.577 117.124C91.7822 122.607 75.4938 126.694 58.9167 129.334C42.3784 132.171 25.6614 133.957 8.87562 134.682L2.58533 134.852L-0.559814 134.938H-3.70496H-10.008C-12.1048 134.938 -14.2016 134.755 -16.2983 134.682C-20.4919 134.572 -24.6598 134.059 -28.8406 133.693C-32.983 132.984 -37.1253 132.337 -41.2549 131.592Z"
              fill="#082C36"/>
        <path d="M-41.3062 138.515C-24.9028 141.69 -8.06477 141.678 8.55593 141.067C25.2347 140.344 41.8568 138.713 58.3413 136.183C74.783 133.619 91.1991 130.347 106.925 124.999C110.853 123.667 114.696 122.114 118.432 120.347C122.114 118.504 125.732 116.501 129.388 114.56C136.77 110.824 144.236 107.259 151.788 103.864C181.961 90.2019 212.76 77.7847 242.281 62.9256L245.056 61.5338L247.792 60.0808L253.251 57.175C255.092 56.2348 256.831 55.136 258.621 54.1226C260.411 53.1092 262.213 52.0957 263.952 51.009C267.378 48.7503 270.946 46.6747 274.18 44.1473C277.428 41.6067 280.844 39.2698 284.408 37.1512C291.78 33.3207 299.616 30.3683 307.741 28.3603C315.811 26.2632 323.998 24.6001 332.263 23.3788C348.772 20.9612 365.428 19.5622 382.125 19.1908C398.841 18.6631 415.575 19.2547 432.205 20.9613C436.36 21.4618 440.502 22.0479 444.606 22.8904L456.829 25.5155C464.947 27.3958 473.066 29.2516 481.121 31.315C497.294 35.2954 513.352 39.6664 529.385 44.1351C561.407 53.1784 593.187 62.9745 624.723 73.5235C640.449 78.908 656.149 84.3535 671.632 90.3484C679.418 93.2299 687.077 96.4532 694.76 99.5544C702.368 102.863 710.013 106.111 717.416 109.823L728.59 115.183C730.457 116.037 732.425 116.77 734.292 117.625L737.156 118.846C738.115 119.224 739.099 119.554 740.071 119.908L745.914 122.02C747.87 122.679 749.852 123.241 751.82 123.925C755.758 125.231 759.773 126.367 763.762 127.441C779.812 131.768 796.088 135.289 812.524 137.99C845.419 143.389 878.614 146.964 911.942 148.698C945.255 150.617 978.652 150.796 1011.99 149.235C1028.61 148.368 1045.23 146.977 1061.77 144.632L1064.86 144.193L1067.95 143.68L1074.11 142.654L1080.22 141.433L1083.28 140.811L1086.31 140.078L1098.44 137.111C1102.5 136.159 1106.56 135.251 1110.64 134.388C1143.24 127.478 1176.15 121.959 1208.67 114.853C1212.74 113.974 1216.75 112.9 1220.82 111.972C1224.88 111.044 1228.95 110.116 1233.04 109.298L1245.39 107.271C1249.51 106.612 1253.68 106.196 1257.81 105.659L1264.02 104.89L1270.26 104.316L1282.72 103.181L1295.21 102.338L1301.47 101.923L1307.72 101.642C1341.08 100.063 1374.47 99.7539 1407.88 100.714C1416.23 100.995 1424.5 101.178 1432.9 101.618L1445.42 102.216L1457.91 102.998C1474.53 104.218 1491.15 105.513 1507.77 107.967C1491.26 105.525 1474.6 104.304 1457.91 103.144L1445.42 102.411L1432.91 101.85C1424.58 101.435 1416.29 101.276 1407.88 101.02C1374.51 100.226 1341.1 100.568 1307.77 102.241L1301.52 102.546L1295.28 102.973L1282.8 103.828L1270.34 104.963L1264.11 105.549L1257.91 106.319C1253.78 106.868 1249.62 107.271 1245.52 107.942L1233.19 109.981C1229.12 110.799 1225.08 111.776 1221.01 112.655C1216.94 113.534 1212.93 114.67 1208.85 115.549C1176.31 122.753 1143.42 128.296 1110.84 135.243C1106.76 136.11 1102.71 137.013 1098.66 137.978L1086.54 140.957L1083.49 141.69L1080.42 142.312L1074.29 143.533L1068.18 144.449L1065.1 144.962L1061.99 145.402C1045.46 147.77 1028.75 149.186 1012.13 150.066C978.752 151.663 945.312 151.52 911.954 149.638C878.581 147.938 845.34 144.391 812.397 139.016C795.894 136.357 779.549 132.872 763.429 128.577C759.428 127.441 755.4 126.367 751.437 125.06C749.455 124.413 747.461 123.839 745.492 123.143L739.598 120.982C738.613 120.628 737.629 120.299 736.657 119.908L733.781 118.687C731.863 117.881 729.945 117.148 728.027 116.245L716.802 110.873C709.438 107.21 701.818 103.925 694.236 100.617C686.565 97.5032 678.894 94.2921 671.223 91.3984C655.766 85.4035 640.078 79.9458 624.378 74.537C592.91 63.9553 561.16 54.1347 529.129 45.0752C513.109 40.5943 497.064 36.2111 480.916 32.2063C472.861 30.1429 464.743 28.287 456.624 26.4068L444.427 23.7573C440.362 22.927 436.245 22.341 432.115 21.8282C415.534 20.1087 398.846 19.5049 382.176 20.0212C365.501 20.3695 348.867 21.7479 332.378 24.1479C324.141 25.34 315.98 26.9705 307.933 29.0318C299.877 31.0238 292.106 33.9472 284.792 37.7372C281.263 39.8314 277.884 42.1483 274.679 44.6723C271.431 47.2119 267.852 49.2875 264.451 51.5463C262.699 52.6329 260.884 53.6219 259.106 54.6719C257.329 55.722 255.552 56.7842 253.711 57.7243L248.226 60.6302L245.49 62.0832L242.716 63.4751C213.131 78.3219 182.319 90.7269 152.133 104.316C144.573 107.694 137.102 111.235 129.721 114.939C126.064 116.855 122.472 118.846 118.738 120.701C115 122.459 111.158 124.008 107.232 125.341C91.4548 130.652 75.0131 133.888 58.5331 136.33C42.0197 138.804 25.372 140.378 8.67099 141.043C-8.06477 141.775 -24.9539 141.739 -41.3062 138.515Z"
              fill="#082C36"/>
        <path d="M-41.3572 145.45C-37.2532 146.024 -33.162 146.769 -29.0324 147.123C-24.9028 147.477 -20.7476 147.709 -16.6052 147.855C-8.29484 148.087 0.0155067 147.978 8.30028 147.66C24.8954 146.993 41.4266 145.544 57.8939 143.314C66.1147 142.19 74.2972 140.872 82.4286 139.272C90.5667 137.719 98.6047 135.722 106.503 133.289C110.435 132.081 114.279 130.625 118.01 128.931C121.705 127.185 125.246 125.072 128.967 123.29C136.369 119.627 143.964 116.428 151.583 113.29C182.14 100.812 213.374 89.8966 243.432 76.405C250.924 73.0107 258.339 69.4455 265.486 65.4164C269.041 63.3896 272.531 61.2651 275.855 58.9208C277.492 57.6999 279.077 56.4789 280.777 55.258C281.607 54.6392 282.483 54.0801 283.398 53.5853C284.271 53.0393 285.176 52.5419 286.109 52.0956C293.581 48.5437 301.476 45.8668 309.621 44.1228C317.71 42.2573 325.895 40.7901 334.143 39.7273C350.622 37.6107 367.214 36.3878 383.838 36.0645C400.478 35.5603 417.133 36.0906 433.701 37.6518C437.83 38.1157 441.973 38.6773 446.051 39.5198L458.21 42.0838C466.303 43.8786 474.396 45.6612 482.501 47.5659C498.649 51.3021 514.746 55.258 530.804 59.3238C562.907 67.5042 594.87 76.1852 626.565 85.6965C642.393 90.5803 658.195 95.4641 673.806 100.922C689.515 106.149 704.884 112.265 719.832 119.236C723.578 121.007 727.26 122.765 730.981 124.474C734.816 125.976 738.575 127.588 742.488 128.845C750.248 131.592 758.239 133.729 766.23 135.805C782.301 139.736 798.614 142.727 815.005 145.206C847.827 150.002 880.886 153.172 914.051 154.705C947.203 156.317 980.445 156.707 1013.62 155.267C1030.24 154.51 1046.76 153.289 1063.19 151.115C1067.31 150.627 1071.39 149.895 1075.48 149.272C1077.52 148.942 1079.54 148.49 1081.58 148.051L1084.62 147.453L1087.64 146.744C1091.65 145.829 1095.68 144.754 1099.73 143.863C1103.78 142.972 1107.84 142.141 1111.91 141.323C1128.2 138.173 1144.55 135.414 1160.89 132.593C1177.23 129.773 1193.6 127.002 1209.81 123.619C1211.83 123.168 1213.86 122.777 1215.87 122.264C1217.88 121.751 1219.87 121.275 1221.92 120.848L1228 119.529C1230.04 119.114 1232.04 118.577 1234.11 118.308L1246.41 116.391L1258.79 114.951C1262.92 114.426 1267.06 114.12 1271.19 113.73C1275.32 113.339 1279.46 112.973 1283.62 112.729C1291.9 112.252 1300.24 111.63 1308.5 111.361C1341.74 109.981 1374.98 109.786 1408.15 110.567C1416.44 110.836 1424.77 110.97 1433.05 111.373L1445.49 111.898L1457.93 112.606L1464.15 112.973L1470.36 113.437C1474.49 113.766 1478.64 113.998 1482.77 114.426L1495.16 115.647L1507.5 117.246L1495.16 115.683L1482.76 114.462C1478.63 114.059 1474.49 113.84 1470.35 113.51L1464.13 113.058L1457.92 112.716L1445.48 112.045L1433.04 111.556C1424.74 111.178 1416.42 111.08 1408.13 110.836C1374.89 110.152 1341.65 110.458 1308.52 111.935C1300.23 112.228 1291.9 112.851 1283.66 113.339C1279.51 113.583 1275.4 114.023 1271.26 114.352C1267.11 114.682 1262.98 115.012 1258.87 115.573L1246.52 117.026L1234.24 118.955C1232.18 119.224 1230.19 119.761 1228.16 120.176L1222.1 121.495C1220.08 121.922 1218.07 122.447 1216.05 122.923C1214.03 123.4 1212 123.827 1209.98 124.279C1193.74 127.697 1177.39 130.469 1161.05 133.314C1144.71 136.159 1128.36 138.93 1112.08 142.093C1108.03 142.911 1103.96 143.729 1099.92 144.644C1095.88 145.56 1091.91 146.598 1087.85 147.538L1084.82 148.258L1081.77 148.857C1079.72 149.235 1077.69 149.687 1075.64 150.078C1071.54 150.737 1067.45 151.457 1063.32 151.946C1046.85 154.143 1030.26 155.377 1013.66 156.158C980.419 157.635 947.178 157.281 913.936 155.694C880.726 154.198 847.619 151.06 814.749 146.293C798.333 143.851 781.981 140.847 765.859 136.916C757.83 134.84 749.801 132.716 741.989 129.956C738.038 128.735 734.216 127.075 730.367 125.561C726.532 123.839 722.85 122.044 719.142 120.298C704.244 113.332 688.926 107.217 673.269 101.984C657.696 96.5019 641.919 91.5815 626.104 86.7343C594.435 77.1986 562.498 68.4199 530.42 60.2639C514.375 56.1859 498.291 52.2178 482.156 48.4694C474.102 46.5647 466.009 44.8065 457.928 42.9629L445.77 40.3867C441.73 39.5564 437.638 38.9948 433.522 38.5186C417.01 36.9538 400.411 36.4074 383.826 36.8825C367.232 37.2174 350.67 38.4403 334.219 40.5454C326.004 41.6067 317.849 43.0614 309.787 44.9042C301.706 46.6296 293.872 49.2779 286.454 52.7916C285.534 53.2296 284.642 53.7189 283.782 54.2568C282.891 54.74 282.036 55.2826 281.225 55.8807C279.588 57.0284 277.965 58.3226 276.303 59.5435C272.953 61.9122 269.424 64.0489 265.857 66.0879C258.672 70.1048 251.231 73.67 243.726 77.0765C213.604 90.507 182.357 101.496 151.814 113.864C144.143 116.977 136.586 120.201 129.184 123.766C125.476 125.536 121.96 127.624 118.201 129.382C114.432 131.078 110.55 132.535 106.58 133.741C98.6584 136.15 90.5991 138.123 82.4414 139.651C74.2972 141.238 66.1019 142.532 57.8683 143.619C41.4522 145.8 24.9252 147.2 8.2875 147.819C-0.0100632 148.112 -8.3332 148.197 -16.6308 147.929C-20.7731 147.782 -24.9283 147.575 -29.0579 147.16C-33.1875 146.744 -37.2532 146.036 -41.3572 145.45Z"
              fill="#082C36"/>
        <path d="M-41.4083 152.373C-39.3627 152.642 -37.3171 152.898 -35.2715 153.228C-33.2258 153.558 -31.1802 153.741 -29.1218 153.899C-25.005 154.254 -20.8754 154.424 -16.7458 154.51C-8.48656 154.693 -0.214577 154.583 8.04463 154.266C24.563 153.647 41.0303 152.361 57.4464 150.408C65.6417 149.419 73.8242 148.271 81.9428 146.854C90.0789 145.49 98.1323 143.708 106.068 141.519C110.032 140.433 113.912 139.083 117.677 137.478C118.616 137.082 119.533 136.642 120.426 136.159C121.334 135.707 122.242 135.219 123.149 134.73C124.939 133.741 126.806 132.887 128.66 131.995C136.139 128.577 143.81 125.61 151.481 122.777C182.37 111.495 213.937 101.948 244.455 89.8112C252.126 86.7588 259.618 83.5233 266.893 79.8238C270.523 77.9894 274.037 75.9509 277.415 73.719C279.051 72.498 280.637 71.2771 282.35 70.1294L282.989 69.6898L283.667 69.3114L285.009 68.5544C285.903 68.0352 286.829 67.5703 287.784 67.1625C289.625 66.2467 291.619 65.5752 293.511 64.8182C295.404 64.0612 297.411 63.4751 299.418 62.9501L302.397 62.0954L305.402 61.3629C307.409 60.8379 309.442 60.4472 311.449 60.0076C319.555 58.3227 327.737 57.1139 335.945 56.1371C352.374 54.2202 368.918 53.2557 385.449 52.8772C401.999 52.4111 418.564 52.88 435.056 54.2813C439.186 54.6727 443.291 55.2718 447.355 56.0761L459.475 58.518L483.69 63.6461C499.825 67.0892 515.935 70.6381 532.018 74.2928C564.186 81.6186 596.264 89.2985 628.124 97.7597C636.094 99.9086 644.042 102.098 651.969 104.328C659.87 106.673 667.809 108.846 675.647 111.398C679.572 112.619 683.522 113.84 687.422 115.134L699.095 119.163C701.064 119.798 702.93 120.555 704.886 121.3L710.64 123.546C714.475 124.938 718.221 126.745 721.967 128.43L727.554 131.006L730.316 132.288C731.237 132.716 732.157 133.155 733.129 133.509L738.844 135.707C740.774 136.391 742.679 136.989 744.687 137.636L747.614 138.576L750.581 139.407L756.513 141.067C760.515 142.019 764.491 143.082 768.518 143.936C784.602 147.477 800.903 150.114 817.255 152.3C849.985 156.634 882.958 159.211 915.969 160.664C948.98 162.117 982.056 162.507 1015.08 161.25C1031.59 160.603 1048.08 159.552 1064.47 157.587C1072.66 156.656 1080.8 155.307 1088.84 153.545L1094.85 152.129C1096.85 151.641 1098.86 151.152 1100.89 150.762C1104.93 149.895 1109 149.162 1113.06 148.43C1129.33 145.573 1145.67 143.131 1161.98 140.628C1178.29 138.125 1194.65 135.744 1210.83 132.557C1212.84 132.13 1214.87 131.763 1216.88 131.336L1222.89 129.92L1225.91 129.212C1226.92 128.992 1227.94 128.809 1228.95 128.613C1230.98 128.21 1233.02 127.832 1235.06 127.527C1243.22 126.208 1251.44 125.231 1259.66 124.474C1276.13 122.899 1292.65 122.032 1309.16 121.349C1342.21 120.128 1375.29 120.042 1408.35 120.702C1424.88 121.056 1441.4 121.593 1457.91 122.484C1474.41 123.375 1490.93 124.462 1507.28 126.806C1490.92 124.511 1474.4 123.534 1457.91 122.631C1441.41 121.727 1424.87 121.312 1408.34 121.007C1375.29 120.445 1342.21 120.665 1309.19 121.959C1292.68 122.655 1276.18 123.546 1259.74 125.134C1251.52 125.903 1243.32 126.892 1235.18 128.21C1233.14 128.516 1231.11 128.894 1229.1 129.297C1228.09 129.505 1227.07 129.676 1226.07 129.895L1223.07 130.603L1217.05 132.032C1215.04 132.52 1213.01 132.887 1210.99 133.253C1194.76 136.403 1178.44 138.845 1162.11 141.385C1145.78 143.924 1129.55 146.427 1113.26 149.333C1109.2 150.078 1105.14 150.81 1101.11 151.677C1099.09 152.068 1097.1 152.556 1095.1 153.045L1089.08 154.473C1081.01 156.258 1072.85 157.619 1064.62 158.551C1048.19 160.554 1031.67 161.628 1015.16 162.287C982.094 163.582 948.993 163.203 915.956 161.811C882.92 160.419 849.908 157.843 817.127 153.545C800.749 151.372 784.41 148.747 768.275 145.206C764.222 144.352 760.233 143.302 756.219 142.349L750.248 140.676L747.269 139.846L744.316 138.894C742.36 138.247 740.378 137.673 738.435 136.965L732.656 134.682C731.688 134.322 730.74 133.915 729.817 133.461L727.005 132.154L721.418 129.59C717.71 127.893 714.053 126.086 710.179 124.706L704.452 122.472C702.547 121.727 700.616 120.97 698.686 120.335L687.051 116.306C683.216 114.987 679.214 113.864 675.302 112.558C667.477 110.006 659.537 107.82 651.662 105.476C643.786 103.132 635.795 101.044 627.843 98.8952C596.008 90.3485 563.917 82.6931 531.801 75.3429C515.726 71.6719 499.625 68.1026 483.499 64.6351L459.296 59.4948L447.189 56.9796C443.16 56.1725 439.089 55.5775 434.992 55.1971C418.544 53.7787 402.022 53.2936 385.513 53.7441C368.995 54.0982 352.489 55.0505 336.099 56.943C327.903 57.9076 319.734 59.1041 311.666 60.7646C309.659 61.2042 307.639 61.5949 305.645 62.1199L302.653 62.8524L299.687 63.6827C297.705 64.2077 295.787 64.9037 293.831 65.5386C291.875 66.1735 289.996 66.9427 288.167 67.8462C287.234 68.2492 286.325 68.7016 285.444 69.2014L284.165 69.9462L283.501 70.3126L282.887 70.7521C281.25 71.8632 279.614 73.194 277.952 74.3173C274.55 76.5882 271.006 78.6595 267.34 80.5198C260.014 84.1826 252.458 87.4548 244.826 90.5072C214.243 102.582 182.664 112.106 151.775 123.327C144.104 126.135 136.433 129.077 128.941 132.459C127.087 133.338 125.233 134.193 123.443 135.17C122.548 135.646 121.641 136.122 120.72 136.586C119.816 137.072 118.886 137.512 117.933 137.905C114.145 139.516 110.24 140.863 106.247 141.934C98.2922 144.117 90.2167 145.878 82.0579 147.209C73.9137 148.6 65.7312 149.736 57.5232 150.688C41.107 152.593 24.627 153.814 8.08298 154.351C-0.176224 154.632 -8.44821 154.717 -16.7074 154.51C-20.837 154.412 -24.9666 154.229 -29.0834 153.863C-31.1419 153.704 -33.2003 153.46 -35.2459 153.167C-37.2915 152.874 -39.3627 152.654 -41.4083 152.373Z"
              fill="#082C36"/>
    </g>
</svg>
