<svg width="782" height="151" viewBox="0 0 782 151" fill="none" xmlns="http://www.w3.org/2000/svg">
    <line y1="75.5" x2="782" y2="75.5" stroke="#13667A" stroke-dasharray="2 2"/>
    <path d="M354.292 140.385L317.575 75.5L354.292 10.6151L427.708 10.6151L464.425 75.5L427.708 140.385L354.292 140.385Z"
          fill="#13667A" stroke="#13667A"/>
    <g clip-path="url(#clip0_98_447)">
        <path d="M369.709 93.8221C372.528 95.2987 379.155 99.3155 387.499 96.8193C395.843 94.3231 399.85 92.3366 411.048 93.8221C414.214 94.077 413.147 104.8 413.147 104.8V112.886L368.139 112.5V100.194C368.23 97.9843 368.764 95.8161 369.709 93.8221V93.8221Z"
              fill="#FCF8F3"/>
        <path d="M390.092 74.2038C389.043 74.2038 379.103 64.6497 379.103 64.6497L402.678 64.3684C402.678 64.3684 391.159 74.2038 390.092 74.2038Z"
              fill="#FCF8F3"/>
        <path d="M422.445 112.201H413.555L413.607 111.621L413.676 110.742V100.88C413.689 98.4298 413.124 96.0119 412.027 93.8284C410.93 91.6449 409.333 89.7591 407.37 88.3285L391.081 75.3904L390.552 74.9685L391.081 74.5554L408.134 61.2569C409.835 59.9304 411.217 58.2306 412.177 56.2851C413.137 54.3396 413.65 52.1989 413.676 50.0239V39.1074H422.445C422.52 39.119 422.596 39.1128 422.668 39.0893C422.74 39.0657 422.806 39.0254 422.86 38.9717C422.914 38.9179 422.954 38.8521 422.979 38.7795C423.003 38.7069 423.01 38.6296 423 38.5536C423.01 38.4777 423.003 38.4003 422.979 38.3277C422.954 38.2552 422.914 38.1894 422.86 38.1356C422.806 38.0818 422.74 38.0415 422.668 38.018C422.596 37.9944 422.52 37.9882 422.445 37.9999H358.547C358.472 37.9897 358.397 37.997 358.326 38.0213C358.255 38.0455 358.191 38.086 358.138 38.1396C358.085 38.1932 358.045 38.2584 358.021 38.3303C357.997 38.4021 357.99 38.4785 358 38.5536C357.988 38.6291 357.994 38.7063 358.017 38.779C358.041 38.8517 358.081 38.9178 358.134 38.9718C358.187 39.0259 358.252 39.0663 358.324 39.0899C358.396 39.1134 358.472 39.1194 358.547 39.1074H367.324V49.7514C367.311 51.9945 367.829 54.208 368.836 56.2057C369.843 58.2034 371.308 59.9267 373.11 61.2305L389.919 74.5642L390.448 74.9861L389.91 75.3992L373.43 88.2846C371.54 89.7222 369.998 91.5778 368.922 93.7101C367.846 95.8424 367.264 98.1953 367.22 100.59V110.707L367.29 111.586L367.333 112.13H366.795L365.928 112.183H358.547C358.474 112.17 358.4 112.175 358.33 112.196C358.259 112.218 358.195 112.256 358.142 112.307C358.089 112.358 358.048 112.421 358.023 112.492C357.999 112.562 357.991 112.637 358 112.711C358 113.097 358.174 113.273 358.538 113.273H422.445C422.521 113.285 422.598 113.279 422.671 113.255C422.743 113.231 422.81 113.19 422.864 113.135C422.918 113.08 422.958 113.013 422.982 112.939C423.006 112.866 423.012 112.787 423 112.711C423 112.377 422.827 112.201 422.445 112.201ZM390.171 73.3073L373.786 60.2285C372.107 59.0336 370.74 57.4426 369.803 55.5928C368.866 53.7429 368.388 51.6899 368.408 49.6108V38.9667H412.583V50.0239C412.569 52.0408 412.091 54.0266 411.188 55.8239C410.285 57.6211 408.981 59.1804 407.379 60.3779L390.899 73.3073L390.57 73.5622L390.171 73.3073ZM412.158 112.148L411.291 112.201H368.287L368.339 111.621L368.417 110.742V100.607C368.407 98.3706 368.93 96.1643 369.94 94.1753C370.95 92.1863 372.418 90.4732 374.22 89.1811L390.179 76.6737L390.5 76.4188L390.821 76.6737L406.702 89.3393C408.519 90.649 410.001 92.3796 411.024 94.3871C412.047 96.3945 412.581 98.6206 412.583 100.88V110.707L412.661 111.586V112.13L412.158 112.148Z"
              fill="#FCF8F3"/>
        <path d="M390.214 86.9399C392.092 86.9399 393.614 85.3973 393.614 83.4944C393.614 81.5915 392.092 80.049 390.214 80.049C388.336 80.049 386.814 81.5915 386.814 83.4944C386.814 85.3973 388.336 86.9399 390.214 86.9399Z"
              fill="#FCF8F3"/>
        <path d="M395.271 88.8208C395.898 88.8208 396.407 88.3053 396.407 87.6694C396.407 87.0335 395.898 86.5179 395.271 86.5179C394.643 86.5179 394.134 87.0335 394.134 87.6694C394.134 88.3053 394.643 88.8208 395.271 88.8208Z"
              fill="#FCF8F3"/>
    </g>
    <path d="M593.292 140.385L556.575 75.5L593.292 10.6151L666.708 10.6151L703.425 75.5L666.708 140.385L593.292 140.385Z"
          fill="#13667A" stroke="#13667A"/>
    <path d="M115.292 140.385L78.5745 75.5L115.292 10.6151L188.708 10.6151L225.425 75.5L188.708 140.385L115.292 140.385Z"
          fill="#13667A" stroke="#13667A"/>
    <g clip-path="url(#clip1_98_447)">
        <path d="M189.982 74.9912C189.961 85.0606 185.952 94.7116 178.832 101.832C171.712 108.952 162.061 112.961 151.991 112.982C151.834 112.982 151.684 112.92 151.573 112.809C151.462 112.698 151.399 112.547 151.399 112.39C151.399 112.233 151.462 112.083 151.573 111.972C151.684 111.861 151.834 111.798 151.991 111.798C160.509 111.798 168.763 108.845 175.348 103.441C181.932 98.0374 186.439 90.5177 188.1 82.1635C189.762 73.8092 188.475 65.1373 184.459 57.6255C180.444 50.1136 173.947 44.2266 166.078 40.9676C158.208 37.7086 149.452 37.2792 141.301 39.7526C133.15 42.226 126.109 47.4492 121.377 54.5321C116.646 61.6151 114.517 70.1195 115.353 78.5962C116.189 87.0729 119.939 94.9975 125.963 101.02C126.07 101.131 126.129 101.28 126.129 101.435C126.129 101.589 126.07 101.738 125.963 101.85C125.851 101.958 125.703 102.021 125.548 102.027C125.391 102.025 125.242 101.961 125.132 101.85C120.713 97.4326 117.452 91.9933 115.637 86.0142C113.823 80.0351 113.511 73.7007 114.729 67.5723C115.948 61.4439 118.659 55.7106 122.623 50.8805C126.587 46.0503 131.681 42.2724 137.454 39.8815C143.227 37.4905 149.5 36.5604 155.718 37.1734C161.937 37.7864 167.908 39.9237 173.103 43.3959C178.297 46.8681 182.556 51.568 185.5 57.0792C188.444 62.5904 189.984 68.7428 189.982 74.9912Z"
              fill="#FCF8F3"/>
        <path d="M161.63 82.0593C161.608 84.3483 160.779 86.556 159.289 88.2935C157.799 90.0311 155.743 91.1868 153.484 91.5571L152.601 91.7073V97.2469C152.602 97.3243 152.588 97.401 152.559 97.4728C152.53 97.5446 152.487 97.6099 152.433 97.665C152.379 97.7201 152.314 97.7638 152.243 97.7937C152.172 97.8235 152.095 97.8389 152.018 97.8389C151.861 97.8389 151.71 97.7765 151.599 97.6655C151.488 97.5545 151.426 97.4039 151.426 97.2469V91.778L150.542 91.6278C148.265 91.263 146.192 90.1002 144.693 88.3473C143.194 86.5944 142.367 84.3656 142.361 82.0593C142.361 81.9023 142.423 81.7518 142.534 81.6407C142.645 81.5297 142.796 81.4674 142.953 81.4674C143.03 81.4674 143.107 81.4827 143.178 81.5126C143.249 81.5424 143.314 81.5862 143.368 81.6413C143.423 81.6964 143.465 81.7617 143.494 81.8335C143.523 81.9052 143.537 81.982 143.536 82.0593C143.607 84.2556 144.529 86.3383 146.108 87.8668C147.687 89.3953 149.798 90.25 151.996 90.25C154.193 90.25 156.304 89.3953 157.883 87.8668C159.462 86.3383 160.384 84.2556 160.455 82.0593C160.455 77.3237 157.266 74.1607 151.938 73.5952C149.793 73.4897 147.757 72.6218 146.195 71.1479C144.909 69.7219 144.238 67.8447 144.331 65.9263C144.33 64.1494 144.946 62.4273 146.075 61.0543C147.203 59.6813 148.772 58.7427 150.516 58.3988L151.399 58.2309V52.7266C151.398 52.6493 151.412 52.5725 151.441 52.5007C151.47 52.429 151.513 52.3636 151.567 52.3085C151.621 52.2535 151.686 52.2097 151.757 52.1799C151.828 52.15 151.905 52.1346 151.982 52.1346C152.06 52.1346 152.137 52.15 152.209 52.1797C152.281 52.2095 152.346 52.2531 152.401 52.308C152.456 52.363 152.499 52.4282 152.529 52.5001C152.559 52.5719 152.574 52.6489 152.574 52.7266V58.2574L153.458 58.4253C155.201 58.7692 156.771 59.7078 157.899 61.0808C159.027 62.4538 159.643 64.1759 159.642 65.9528C159.644 66.0301 159.629 66.1069 159.601 66.1787C159.572 66.2505 159.529 66.3158 159.475 66.3709C159.421 66.426 159.356 66.4697 159.284 66.4996C159.213 66.5294 159.137 66.5448 159.059 66.5448C158.982 66.5448 158.905 66.5295 158.833 66.4997C158.761 66.47 158.696 66.4264 158.641 66.3714C158.586 66.3164 158.542 66.2512 158.512 66.1794C158.483 66.1075 158.467 66.0306 158.467 65.9528C158.5 65.0805 158.356 64.2106 158.044 63.3952C157.732 62.5797 157.259 61.8355 156.654 61.207C156.048 60.5784 155.322 60.0785 154.518 59.737C153.715 59.3955 152.851 59.2195 151.978 59.2195C151.105 59.2195 150.241 59.3955 149.438 59.737C148.634 60.0785 147.908 60.5784 147.302 61.207C146.696 61.8355 146.224 62.5797 145.912 63.3952C145.6 64.2106 145.456 65.0805 145.488 65.9528C145.488 69.7961 147.688 71.9872 152.035 72.4467C158.052 73.0828 161.63 76.6875 161.63 82.0593Z"
              fill="#FCF8F3"/>
    </g>
    <g clip-path="url(#clip2_98_447)">
        <path d="M623.77 111.81C624.12 112.05 624.48 112.28 624.84 112.51C617.71 116.05 610.92 117.91 605.11 117.91H604.87C599.65 117.91 595.5 116.34 592.54 113.37C585.54 106.37 586.69 92.5499 595.43 77.2C596.54 75.2 597.78 73.2899 599.1 71.3699C605.898 61.5156 614.357 52.9177 624.1 45.96L625.19 46.5699C614.452 54.0331 605.299 63.5497 598.26 74.5699C596.92 76.6899 595.73 78.7799 594.71 80.7899C587.66 94.5599 587.12 106.45 593.3 112.62C596.278 115.364 600.18 116.885 604.23 116.88C604.52 116.88 604.82 116.88 605.11 116.88C610.56 116.87 616.96 115.12 623.77 111.81Z"
              fill="#FCF8F3"/>
        <path d="M667.39 113.37C664.39 116.37 660.15 117.91 654.82 117.91C651.009 117.851 647.229 117.214 643.61 116.02C639.292 114.617 635.136 112.76 631.21 110.48C629.15 109.29 627.21 108.09 625.38 106.81C620.241 103.264 615.443 99.2467 611.05 94.81C606.999 90.7692 603.295 86.3937 599.98 81.73C600.17 81.37 600.38 81 600.58 80.64C603.925 85.432 607.686 89.9193 611.82 94.05C616.901 99.1656 622.536 103.7 628.62 107.57C630.7 108.88 632.79 110.07 634.83 111.12C642.12 114.85 649.02 116.83 654.83 116.83C655.12 116.83 655.41 116.83 655.7 116.83C659.774 116.837 663.702 115.309 666.7 112.55C672.61 106.64 672.31 95.28 665.9 82.09C666.14 81.73 666.38 81.37 666.61 81.01C673.31 94.81 673.67 107.09 667.39 113.37Z"
              fill="#FCF8F3"/>
        <path d="M664.5 74.7C663.39 76.65 662.16 78.61 660.83 80.54C657.286 85.678 653.269 90.4724 648.83 94.86C644.784 98.9062 640.409 102.609 635.75 105.93L634.66 105.33C645.382 97.8484 654.532 88.3353 661.59 77.33C662.9 75.26 664.09 73.17 665.14 71.11C672.14 57.34 672.74 45.45 666.57 39.28C663.606 36.5309 659.712 35.0053 655.67 35.01H654.79C649.4 35.01 642.96 36.77 636.13 40.08L635.05 39.38C642.17 35.86 648.96 34.01 654.77 34.01C660.05 34.01 664.4 35.57 667.35 38.53C674.35 45.49 673.24 59.35 664.5 74.7Z"
              fill="#FCF8F3"/>
        <path d="M629.97 67.25C634.67 67.25 639.67 65.99 639.67 63.68C639.67 61.37 634.67 60.11 629.97 60.11C625.27 60.11 620.26 61.36 620.26 63.68C620.26 66 625.26 67.25 629.97 67.25Z"
              fill="#FCF8F3"/>
        <path d="M630.5 69.3201H629.43C626.505 69.313 623.617 68.6644 620.97 67.42L620.26 67.0801V71.35C620.26 73 624.5 74.92 629.97 74.92C635.44 74.92 639.67 73 639.67 71.35V67.0801L638.96 67.42C636.313 68.6644 633.425 69.313 630.5 69.3201Z"
              fill="#FCF8F3"/>
        <path d="M630.5 84.6599H629.43C626.508 84.6576 623.622 84.0088 620.98 82.7599L620.26 82.4199V86.6899C620.26 88.3399 624.5 90.2599 629.97 90.2599C635.44 90.2599 639.67 88.3399 639.67 86.6899V82.4199L638.96 82.7599C636.314 84.0077 633.425 84.6564 630.5 84.6599Z"
              fill="#FCF8F3"/>
        <path d="M630.5 77H629.43C626.508 76.9977 623.622 76.3488 620.98 75.1L620.26 74.76V79C620.26 80.65 624.5 82.57 629.97 82.57C635.44 82.57 639.67 80.65 639.67 79V74.73L638.96 75.07C636.316 76.3281 633.428 76.9871 630.5 77Z"
              fill="#FCF8F3"/>
        <path d="M659.95 70.12C659.76 70.49 659.56 70.85 659.35 71.22C656.008 66.4254 652.25 61.9347 648.12 57.8C643.041 52.6814 637.406 48.1466 631.32 44.28C629.22 42.96 627.13 41.77 625.1 40.73C617.79 36.99 610.88 35.01 605.1 35H604.21C600.157 34.9984 596.254 36.5352 593.29 39.3C587.37 45.21 587.68 56.57 594.09 69.76C593.85 70.12 593.61 70.48 593.38 70.84C586.6 57.1 586.24 44.84 592.53 38.54C595.53 35.54 599.85 34.02 605.13 34.02C612.03 34.02 620.13 36.59 628.7 41.44C630.63 42.54 632.6 43.77 634.55 45.1C644.391 51.9078 652.981 60.3657 659.94 70.1L659.95 70.12Z"
              fill="#FCF8F3"/>
    </g>
    <defs>
        <clipPath id="clip0_98_447">
            <rect width="65" height="75.3084" fill="white" transform="translate(358 38)"/>
        </clipPath>
        <clipPath id="clip1_98_447">
            <rect width="76" height="76" fill="white" transform="translate(114 37)"/>
        </clipPath>
        <clipPath id="clip2_98_447">
            <rect width="83.93" height="83.91" fill="white" transform="translate(588 34)"/>
        </clipPath>
    </defs>
</svg>
